<?xml version="1.0" encoding="UTF-8"?>
<svg width="586px" height="447px" viewBox="0 0 586 447" version="1.1" xmlns="http://www.w3.org/2000/svg" xmlns:xlink="http://www.w3.org/1999/xlink">
    <title>6river illustration</title>
    <defs>
        <filter x="-5.7%" y="-7.7%" width="111.5%" height="115.5%" filterUnits="objectBoundingBox" id="filter-1">
            <feOffset dx="0" dy="0" in="SourceAlpha" result="shadowOffsetOuter1"></feOffset>
            <feGaussianBlur stdDeviation="8" in="shadowOffsetOuter1" result="shadowBlurOuter1"></feGaussianBlur>
            <feColorMatrix values="0 0 0 0 0   0 0 0 0 0   0 0 0 0 0  0 0 0 0.2 0" type="matrix" in="shadowBlurOuter1" result="shadowMatrixOuter1"></feColorMatrix>
            <feMerge>
                <feMergeNode in="shadowMatrixOuter1"></feMergeNode>
                <feMergeNode in="SourceGraphic"></feMergeNode>
            </feMerge>
        </filter>
        <rect id="path-2" x="0" y="0" width="540" height="401" rx="8"></rect>
    </defs>
    <g stroke="none" stroke-width="1" fill="none" fill-rule="evenodd">
        <g filter="url(#filter-1)" transform="translate(23.000000, 23.000000)">
            <mask id="mask-3" fill="white">
                <use xlink:href="#path-2"></use>
            </mask>
            <use fill="#F5F5F5" fill-rule="nonzero" xlink:href="#path-2"></use>
            <rect fill="#FFFFFF" mask="url(#mask-3)" x="121" y="92" width="403" height="276" rx="2"></rect>
            <rect fill="#FFFFFF" mask="url(#mask-3)" x="0" y="0" width="105" height="401"></rect>
            <circle fill="#FF6058" fill-rule="nonzero" mask="url(#mask-3)" cx="24" cy="24" r="8"></circle>
            <circle fill="#FFC12E" fill-rule="nonzero" mask="url(#mask-3)" cx="48" cy="24" r="8"></circle>
            <circle fill="#28CE41" fill-rule="nonzero" mask="url(#mask-3)" cx="72" cy="24" r="8"></circle>
            <rect fill="#202021" mask="url(#mask-3)" x="121" y="64" width="88" height="12" rx="2"></rect>
            <rect fill="#919EAB" mask="url(#mask-3)" x="16" y="109" width="64" height="12" rx="2"></rect>
            <rect fill="#2C6FCC" mask="url(#mask-3)" x="16" y="136" width="48" height="12" rx="2"></rect>
            <rect fill="#919EAB" mask="url(#mask-3)" x="16" y="163" width="32" height="12" rx="2"></rect>
            <rect fill="#919EAB" mask="url(#mask-3)" x="16" y="190" width="64" height="12" rx="2"></rect>
            <rect fill="#919EAB" mask="url(#mask-3)" x="16" y="217" width="48" height="12" rx="2"></rect>
            <rect fill="#919EAB" mask="url(#mask-3)" x="57" y="64" width="32" height="12" rx="2"></rect>
            <rect fill="#919EAB" mask="url(#mask-3)" x="16" y="244" width="64" height="12" rx="2"></rect>
            <rect fill="#919EAB" mask="url(#mask-3)" x="16" y="272" width="64" height="12" rx="2"></rect>
            <rect fill="#202021" mask="url(#mask-3)" x="137" y="144" width="120" height="12" rx="2"></rect>
            <rect fill="#202021" mask="url(#mask-3)" x="313" y="144" width="48" height="12" rx="2"></rect>
            <rect fill="#202021" mask="url(#mask-3)" x="409" y="144" width="64" height="12" rx="2"></rect>
            <rect fill="#919EAB" mask="url(#mask-3)" x="436" y="64" width="64" height="12" rx="2"></rect>
            <rect fill="#919EAB" mask="url(#mask-3)" x="137" y="172" width="144" height="12" rx="2"></rect>
            <rect fill="#2C6FCC" mask="url(#mask-3)" x="137" y="108" width="32" height="12" rx="2"></rect>
            <rect fill="#2C6FCC" mask="url(#mask-3)" x="185" y="108" width="64" height="12" rx="2"></rect>
            <rect fill="#2C6FCC" mask="url(#mask-3)" x="265" y="108" width="48" height="12" rx="2"></rect>
            <rect fill="#2C6FCC" mask="url(#mask-3)" x="329" y="108" width="48" height="12" rx="2"></rect>
            <rect fill="#2C6FCC" mask="url(#mask-3)" x="393" y="108" width="48" height="12" rx="2"></rect>
            <rect fill="#2C6FCC" mask="url(#mask-3)" x="508" y="64" width="16" height="12" rx="2"></rect>
            <rect fill="#919EAB" mask="url(#mask-3)" x="313" y="172" width="64" height="12" rx="2"></rect>
            <rect fill="#D72C0D" mask="url(#mask-3)" x="409" y="172" width="48" height="12" rx="2"></rect>
            <rect fill="#919EAB" mask="url(#mask-3)" x="137" y="200" width="120" height="12" rx="2"></rect>
            <rect fill="#919EAB" mask="url(#mask-3)" x="313" y="200" width="48" height="12" rx="2"></rect>
            <rect fill="#D72C0D" mask="url(#mask-3)" x="409" y="200" width="88" height="12" rx="2"></rect>
            <rect fill="#919EAB" mask="url(#mask-3)" x="137" y="228" width="88" height="12" rx="2"></rect>
            <rect fill="#919EAB" mask="url(#mask-3)" x="313" y="228" width="48" height="12" rx="2"></rect>
            <rect fill="#919EAB" mask="url(#mask-3)" x="409" y="228" width="64" height="12" rx="2"></rect>
            <rect fill="#919EAB" mask="url(#mask-3)" x="137" y="256" width="88" height="12" rx="2"></rect>
            <rect fill="#919EAB" mask="url(#mask-3)" x="313" y="256" width="64" height="12" rx="2"></rect>
            <rect fill="#008060" mask="url(#mask-3)" x="409" y="256" width="48" height="12" rx="2"></rect>
            <rect fill="#919EAB" mask="url(#mask-3)" x="137" y="284" width="144" height="12" rx="2"></rect>
            <rect fill="#919EAB" mask="url(#mask-3)" x="313" y="284" width="32" height="12" rx="2"></rect>
            <rect fill="#919EAB" mask="url(#mask-3)" x="409" y="284" width="48" height="12" rx="2"></rect>
            <rect fill="#919EAB" mask="url(#mask-3)" x="137" y="312" width="64" height="12" rx="2"></rect>
            <rect fill="#919EAB" mask="url(#mask-3)" x="313" y="312" width="32" height="12" rx="2"></rect>
            <rect fill="#008060" mask="url(#mask-3)" x="409" y="312" width="64" height="12" rx="2"></rect>
            <rect fill="#919EAB" mask="url(#mask-3)" x="137" y="340" width="120" height="12" rx="2"></rect>
            <rect fill="#919EAB" mask="url(#mask-3)" x="313" y="340" width="48" height="12" rx="2"></rect>
            <rect fill="#D72C0D" mask="url(#mask-3)" x="409" y="340" width="64" height="12" rx="2"></rect>
            <g mask="url(#mask-3)">
                <g transform="translate(16.000000, 56.000000)">
                    <path d="M13.4312,7.73315 C14.5708,7.73315 15.6291,8.46577 16.5245,9.1984 L15.4663,10.1752 C15.4663,10.1752 15.367,9.9946 15.2221,9.8496 C15.1407,9.7682 15.0592,9.7139 14.8964,9.6054 C14.6522,9.4426 14.2452,9.3612 14.2452,9.3612 C14.2452,9.3612 13.7568,9.2798 13.594,9.2798 C13.2684,9.2798 12.9428,9.3612 12.5358,9.4426 C12.1288,9.524 11.8032,9.7682 11.3962,10.0938 C11.0706,10.4194 10.745,10.9078 10.5008,11.4776 C10.2566,12.0474 10.0937,12.8615 10.0937,13.8383 C10.4194,13.4313 10.8264,13.0243 11.3148,12.7801 C11.8032,12.5358 12.373,12.373 13.0242,12.373 C13.5126,12.373 14.001,12.4544 14.4894,12.6173 C14.9778,12.7801 15.3849,13.0243 15.7105,13.4313 C16.0361,13.7569 16.3617,14.1639 16.5245,14.6523 C16.6873,15.1407 16.8501,15.6291 16.8501,16.1989 C16.8501,16.7687 16.7687,17.3385 16.5245,17.827 C16.2803,18.3154 16.0361,18.7224 15.7105,19.048 C15.3849,19.3736 14.8964,19.6992 14.4894,19.862 C14.001,20.0248 13.5126,20.1062 12.9428,20.1062 C12.2102,20.1062 11.6404,19.9434 11.0706,19.6992 C10.5008,19.455 10.0937,19.048 9.6867,18.5596 C9.3611,18.0712 9.0355,17.5013 8.87273,16.7687 C8.70992,16.1175 8.54712,15.3035 8.54712,14.4081 C8.54712,13.3499 8.62852,12.373 8.87273,11.559 C9.1169,10.745 9.4425,10.0938 9.8495,9.524 C10.2566,8.95418 10.8264,8.54717 11.3962,8.22156 C12.2509,7.73315 12.6986,7.73315 13.4312,7.73315 Z M10.1752,15.2221 C10.1752,15.3035 10.1752,15.3849 10.1752,15.4663 C10.1752,15.5477 10.1752,15.6291 10.1752,15.7105 C10.1752,16.1989 10.2566,16.6873 10.4194,17.0943 C10.5822,17.5013 10.745,17.9084 10.9892,18.1526 C11.2334,18.4782 11.559,18.7224 11.8846,18.8852 C12.2102,19.048 12.6172,19.1294 12.9428,19.1294 C13.594,19.1294 14.1638,18.8852 14.6522,18.3968 C15.1406,17.9084 15.3849,17.2571 15.3849,16.3617 C15.3849,15.8733 15.3035,15.4663 15.1406,15.1407 C14.9778,14.8151 14.815,14.4895 14.5708,14.3267 C14.3266,14.0825 14.0824,13.9197 13.7568,13.8383 C13.4312,13.7569 13.187,13.6755 12.8614,13.6755 C12.2916,13.6755 11.8032,13.8383 11.3148,14.1639 C10.9078,14.4081 10.5008,14.7337 10.1752,15.2221 Z" stroke="none" fill="#000000" fill-rule="nonzero"></path>
                    <line x1="12.6173" y1="23.688" x2="12.6173" y2="28.4093" stroke="#2458A0" stroke-width="1.04186" fill="none" stroke-linecap="round"></line>
                    <line x1="4.63952" y1="19.0479" x2="0.48804" y2="21.4899" stroke="#2458A0" stroke-width="1.04186" fill="none" stroke-linecap="round"></line>
                    <line x1="4.63952" y1="9.8494" x2="0.48804" y2="7.48877" stroke="#2458A0" stroke-width="1.04186" fill="none" stroke-linecap="round"></line>
                    <line x1="12.6173" y1="5.29122" x2="12.6173" y2="0.48853" stroke="#2458A0" stroke-width="1.04186" fill="none" stroke-linecap="round"></line>
                    <line x1="20.5945" y1="9.8494" x2="24.6646" y2="7.48877" stroke="#2458A0" stroke-width="1.04186" fill="none" stroke-linecap="round"></line>
                    <line x1="20.5945" y1="19.0479" x2="24.6646" y2="21.4899" stroke="#2458A0" stroke-width="1.04186" fill="none" stroke-linecap="round"></line>
                </g>
            </g>
        </g>
    </g>
</svg>