<svg width="540" height="401" viewBox="0 0 540 401" fill="none" xmlns="http://www.w3.org/2000/svg">
    <g>
        <rect width="540" height="401" fill="#F5F5F5" />
        <mask id="mask0" mask-type="alpha" maskUnits="userSpaceOnUse" x="0" y="0" width="540" height="401">
            <rect width="540" height="401" fill="white" />
        </mask>
        <g mask="url(#mask0)">
            <rect x="121" y="92" width="403" height="276" rx="2" fill="white" />
            <rect width="105" height="401" fill="white" />
            <circle cx="24" cy="24" r="8" fill="#FF6058" />
            <circle cx="48" cy="24" r="8" fill="#FFC12E" />
            <circle cx="72" cy="24" r="8" fill="#28CE41" />
            <rect x="121" y="64" width="88" height="12" rx="2" fill="#202021" />
            <rect x="16" y="109" width="64" height="12" rx="2" fill="#919EAB" />
            <rect x="16" y="136" width="48" height="12" rx="2" fill="#2C6FCC" />
            <rect x="16" y="163" width="32" height="12" rx="2" fill="#919EAB" />
            <rect x="16" y="190" width="64" height="12" rx="2" fill="#919EAB" />
            <rect x="16" y="217" width="48" height="12" rx="2" fill="#919EAB" />
            <rect x="57" y="64" width="32" height="12" rx="2" fill="#919EAB" />
            <rect x="16" y="244" width="64" height="12" rx="2" fill="#919EAB" />
            <rect x="16" y="272" width="64" height="12" rx="2" fill="#919EAB" />
            <rect x="137" y="144" width="120" height="12" rx="2" fill="#202021" />
            <rect x="313" y="144" width="48" height="12" rx="2" fill="#202021" />
            <rect x="409" y="144" width="64" height="12" rx="2" fill="#202021" />
            <rect x="436" y="64" width="64" height="12" rx="2" fill="#919EAB" />
            <rect x="137" y="172" width="144" height="12" rx="2" fill="#919EAB" />
            <rect x="137" y="108" width="32" height="12" rx="2" fill="#2C6FCC" />
            <rect x="185" y="108" width="64" height="12" rx="2" fill="#2C6FCC" />
            <rect x="265" y="108" width="48" height="12" rx="2" fill="#2C6FCC" />
            <rect x="329" y="108" width="48" height="12" rx="2" fill="#2C6FCC" />
            <rect x="393" y="108" width="48" height="12" rx="2" fill="#2C6FCC" />
            <rect x="508" y="64" width="16" height="12" rx="2" fill="#2C6FCC" />
            <rect x="313" y="172" width="64" height="12" rx="2" fill="#919EAB" />
            <rect x="409" y="172" width="48" height="12" rx="2" fill="#D72C0D" />
            <rect x="137" y="200" width="120" height="12" rx="2" fill="#919EAB" />
            <rect x="313" y="200" width="48" height="12" rx="2" fill="#919EAB" />
            <rect x="409" y="200" width="88" height="12" rx="2" fill="#D72C0D" />
            <rect x="137" y="228" width="88" height="12" rx="2" fill="#919EAB" />
            <rect x="313" y="228" width="48" height="12" rx="2" fill="#919EAB" />
            <rect x="409" y="228" width="64" height="12" rx="2" fill="#919EAB" />
            <rect x="137" y="256" width="88" height="12" rx="2" fill="#919EAB" />
            <rect x="313" y="256" width="64" height="12" rx="2" fill="#919EAB" />
            <rect x="409" y="256" width="48" height="12" rx="2" fill="#008060" />
            <rect x="137" y="284" width="144" height="12" rx="2" fill="#919EAB" />
            <rect x="313" y="284" width="32" height="12" rx="2" fill="#919EAB" />
            <rect x="409" y="284" width="48" height="12" rx="2" fill="#919EAB" />
            <rect x="137" y="312" width="64" height="12" rx="2" fill="#919EAB" />
            <rect x="313" y="312" width="32" height="12" rx="2" fill="#919EAB" />
            <rect x="409" y="312" width="64" height="12" rx="2" fill="#008060" />
            <rect x="137" y="340" width="120" height="12" rx="2" fill="#919EAB" />
            <rect x="313" y="340" width="48" height="12" rx="2" fill="#919EAB" />
            <rect x="409" y="340" width="64" height="12" rx="2" fill="#D72C0D" />
            <g>
                <path fill-rule="evenodd" clip-rule="evenodd" d="M32.5245 65.1982C31.6291 64.4655 30.5708 63.7329 29.4312 63.7329C28.6986 63.7329 28.2509 63.7329 27.3962 64.2213C26.8264 64.5469 26.2566 64.9539 25.8495 65.5238C25.4425 66.0936 25.1169 66.7448 24.8727 67.5588C24.6285 68.3728 24.5471 69.3497 24.5471 70.4079C24.5471 71.3033 24.7099 72.1173 24.8727 72.7685C25.0355 73.5011 25.3611 74.071 25.6867 74.5594C26.0937 75.0478 26.5008 75.4548 27.0706 75.699C27.6404 75.9432 28.2102 76.106 28.9428 76.106C29.5126 76.106 30.001 76.0246 30.4894 75.8618C30.8964 75.699 31.3849 75.3734 31.7105 75.0478C32.0361 74.7222 32.2803 74.3152 32.5245 73.8268C32.7687 73.3383 32.8501 72.7685 32.8501 72.1987C32.8501 71.6289 32.6873 71.1405 32.5245 70.6521L32.5245 70.6521C32.3617 70.1637 32.0361 69.7567 31.7105 69.4311C31.3849 69.0241 30.9778 68.7799 30.4894 68.6171C30.001 68.4542 29.5126 68.3728 29.0242 68.3728C28.373 68.3728 27.8032 68.5356 27.3148 68.7799C26.8264 69.0241 26.4194 69.4311 26.0937 69.8381C26.0937 68.8613 26.2566 68.0472 26.5008 67.4774C26.745 66.9076 27.0706 66.4192 27.3962 66.0936C27.8032 65.768 28.1288 65.5238 28.5358 65.4424C28.6056 65.4284 28.6731 65.4144 28.7385 65.4009C29.0545 65.3354 29.3243 65.2796 29.594 65.2796C29.7568 65.2796 30.2452 65.361 30.2452 65.361C30.2452 65.361 30.6522 65.4424 30.8964 65.6052L30.8967 65.6054C31.0593 65.7137 31.1407 65.768 31.2221 65.8494C31.367 65.9944 31.4663 66.175 31.4663 66.175L32.5245 65.1982ZM26.1752 71.4661V71.2219C26.5008 70.7335 26.9078 70.4079 27.3148 70.1637C27.8032 69.8381 28.2916 69.6753 28.8614 69.6753C29.1311 69.6753 29.345 69.7311 29.5956 69.7966C29.6475 69.8101 29.7009 69.8241 29.7568 69.8381C30.0824 69.9195 30.3266 70.0823 30.5708 70.3265C30.815 70.4893 30.9778 70.8149 31.1406 71.1405C31.3035 71.4661 31.3849 71.8731 31.3849 72.3615C31.3849 73.2569 31.1406 73.9082 30.6522 74.3966C30.1638 74.885 29.594 75.1292 28.9428 75.1292C28.6172 75.1292 28.2102 75.0478 27.8846 74.885C27.559 74.7222 27.2334 74.478 26.9892 74.1524C26.7451 73.9082 26.5823 73.5013 26.4195 73.0944L26.4194 73.0941C26.2566 72.6871 26.1752 72.1987 26.1752 71.7103V71.4661Z" fill="black" />
                <path d="M28.6173 79.688V84.4093" stroke="#2458A0" stroke-width="1.04186" stroke-linecap="round" />
                <path d="M20.6395 75.0479L16.488 77.4899" stroke="#2458A0" stroke-width="1.04186" stroke-linecap="round" />
                <path d="M20.6395 65.8494L16.488 63.4888" stroke="#2458A0" stroke-width="1.04186" stroke-linecap="round" />
                <path d="M28.6173 61.2915V56.4888" stroke="#2458A0" stroke-width="1.04186" stroke-linecap="round" />
                <path d="M36.5945 65.8494L40.6646 63.4888" stroke="#2458A0" stroke-width="1.04186" stroke-linecap="round" />
                <path d="M36.5945 75.0479L40.6646 77.4899" stroke="#2458A0" stroke-width="1.04186" stroke-linecap="round" />
            </g>
        </g>
    </g>
</svg>