<svg width="540" height="401" viewBox="0 0 540 401" fill="none" xmlns="http://www.w3.org/2000/svg" xmlns:xlink="http://www.w3.org/1999/xlink">
<rect width="540" height="401" fill="white"/>
<circle cx="24" cy="24" r="8" fill="#FF6058"/>
<circle cx="48" cy="24" r="8" fill="#FFC12E"/>
<circle cx="72" cy="24" r="8" fill="#28CE41"/>
<rect x="176" y="56" width="160" height="24" rx="2" fill="#1F2937"/>
<text x="340" y="78" font-size="28" fill="#1F2937">🕵️</text>
<rect x="110" y="96" width="320" height="12" rx="2" fill="#4B5563"/>
<rect x="16" y="198" width="246" height="88" rx="2" fill="white" stroke="#D1D5DB" stroke-width="4"/>
<rect x="278" y="198" width="246" height="88" rx="2" fill="white" stroke="#D1D5DB" stroke-width="4"/>
<rect x="238" y="112" width="64" height="12" rx="2" fill="#4B5563"/>
<rect x="16" y="156" width="88" height="12" rx="2" fill="#4B5563"/>
<rect x="16" y="184" width="48" height="8" rx="2" fill="#4B5563"/>
<rect x="278" y="184" width="48" height="8" rx="2" fill="#4B5563"/>
<rect x="436" y="156" width="88" height="12" rx="2" fill="#4B5563"/>
<rect x="24" y="206" width="160" height="12" rx="2" fill="#1F2937"/>
<rect x="40" y="222" width="64" height="12" rx="2" fill="#1F2937"/>
<rect x="40" y="238" width="88" height="12" rx="2" fill="#1F2937"/>
<rect x="24" y="266" width="120" height="12" rx="2" fill="#1F2937"/>
<rect x="286" y="206" width="160" height="12" rx="2" fill="#1F2937"/>
<rect x="302" y="222" width="48" height="12" rx="2" fill="#1F2937"/>
<rect x="302" y="238" width="120" height="12" rx="2" fill="#1F2937"/>
<rect x="286" y="266" width="88" height="12" rx="2" fill="#1F2937"/>
<rect x="504" y="206" width="12" height="12" rx="2" fill="#4B5563"/>
<rect x="254" y="156" width="12" height="12" rx="2" fill="#4B5563"/>
<rect x="274" y="156" width="12" height="12" rx="2" fill="#4B5563"/>
<rect x="16" y="365" width="120" height="8" rx="2" fill="#4B5563"/>
<rect x="16" y="377" width="120" height="8" rx="2" fill="#4B5563"/>
<rect x="460" y="365" width="64" height="8" rx="2" fill="#4B5563"/>
<rect x="436" y="377" width="88" height="8" rx="2" fill="#4B5563"/>
<rect x="210" y="310" width="120" height="24" rx="2" fill="#1D4ED8"/>
</svg>
