<?xml version="1.0" encoding="UTF-8"?>
<svg width="586px" height="447px" viewBox="0 0 586 447" version="1.1" xmlns="http://www.w3.org/2000/svg" xmlns:xlink="http://www.w3.org/1999/xlink">
    <title>Atomize illustration</title>
    <defs>
        <filter x="-5.7%" y="-7.7%" width="111.5%" height="115.5%" filterUnits="objectBoundingBox" id="filter-1">
            <feOffset dx="0" dy="0" in="SourceAlpha" result="shadowOffsetOuter1"></feOffset>
            <feGaussianBlur stdDeviation="8" in="shadowOffsetOuter1" result="shadowBlurOuter1"></feGaussianBlur>
            <feColorMatrix values="0 0 0 0 0   0 0 0 0 0   0 0 0 0 0  0 0 0 0.2 0" type="matrix" in="shadowBlurOuter1" result="shadowMatrixOuter1"></feColorMatrix>
            <feMerge>
                <feMergeNode in="shadowMatrixOuter1"></feMergeNode>
                <feMergeNode in="SourceGraphic"></feMergeNode>
            </feMerge>
        </filter>
    </defs>
    <g stroke="none" stroke-width="1" fill="none" fill-rule="evenodd">
        <g filter="url(#filter-1)" transform="translate(23.000000, 23.000000)">
            <rect fill="#282C34" fill-rule="nonzero" x="0" y="0" width="540" height="401" rx="8"></rect>
            <circle fill="#FF6058" fill-rule="nonzero" cx="24" cy="24" r="8"></circle>
            <circle fill="#FFC12E" fill-rule="nonzero" cx="48" cy="24" r="8"></circle>
            <circle fill="#28CE41" fill-rule="nonzero" cx="72" cy="24" r="8"></circle>
            <rect fill="#D7DAE0" x="226" y="18" width="88" height="12" rx="2"></rect>
            <rect fill="#D7DAE0" x="16" y="56" width="48" height="12" rx="2"></rect>
            <path d="M18,104 L78,104 C79.1045695,104 80,104.895431 80,106 L80,114 C80,115.104569 79.1045695,116 78,116 L18,116 C16.8954305,116 16,115.104569 16,114 L16,106 C16,104.895431 16.8954305,104 18,104 Z" fill="#D7DAE0"></path>
            <rect fill="#D7DAE0" x="16" y="80" width="88" height="12" rx="2"></rect>
            <rect fill="#D7DAE0" x="32" y="128" width="48" height="12" rx="2"></rect>
            <rect fill="#D7DAE0" x="32" y="152" width="64" height="12" rx="2"></rect>
            <rect fill="#D7DAE0" x="32" y="176" width="48" height="12" rx="2"></rect>
            <path d="M154,58 L198,58 C199.104569,58 200,58.8954305 200,60 L200,68 C200,69.1045695 199.104569,70 198,70 L154,70 C152.895431,70 152,69.1045695 152,68 L152,60 C152,58.8954305 152.895431,58 154,58 Z" fill="#C678DD"></path>
            <path d="M298,58 L342,58 C343.104569,58 344,58.8954305 344,60 L344,68 C344,69.1045695 343.104569,70 342,70 L298,70 C296.895431,70 296,69.1045695 296,68 L296,60 C296,58.8954305 296.895431,58 298,58 Z" fill="#C678DD"></path>
            <path d="M218,58 L278,58 C279.104569,58 280,58.8954305 280,60 L280,68 C280,69.1045695 279.104569,70 278,70 L218,70 C216.895431,70 216,69.1045695 216,68 L216,60 C216,58.8954305 216.895431,58 218,58 Z" fill="#E06C75"></path>
            <path d="M298,130 L382,130 C383.104569,130 384,130.895431 384,132 L384,140 C384,141.104569 383.104569,142 382,142 L298,142 C296.895431,142 296,141.104569 296,140 L296,132 C296,130.895431 296.895431,130 298,130 Z" fill="#E06C75"></path>
            <rect fill="#5C6370" x="152" y="106" width="160" height="12" rx="2"></rect>
            <path d="M362,58 L446,58 C447.104569,58 448,58.8954305 448,60 L448,68 C448,69.1045695 447.104569,70 446,70 L362,70 C360.895431,70 360,69.1045695 360,68 L360,60 C360,58.8954305 360.895431,58 362,58 Z" fill="#98C379"></path>
            <path d="M186,226 L270,226 C271.104569,226 272,226.895431 272,228 L272,236 C272,237.104569 271.104569,238 270,238 L186,238 C184.895431,238 184,237.104569 184,236 L184,228 C184,226.895431 184.895431,226 186,226 Z" fill="#98C379"></path>
            <path d="M154,130 L198,130 C199.104569,130 200,130.895431 200,132 L200,140 C200,141.104569 199.104569,142 198,142 L154,142 C152.895431,142 152,141.104569 152,140 L152,132 C152,130.895431 152.895431,130 154,130 Z" fill="#C678DD"></path>
            <path d="M154,346 L198,346 C199.104569,346 200,346.895431 200,348 L200,356 C200,357.104569 199.104569,358 198,358 L154,358 C152.895431,358 152,357.104569 152,356 L152,348 C152,346.895431 152.895431,346 154,346 Z" fill="#C678DD"></path>
            <path d="M154,154 L198,154 C199.104569,154 200,154.895431 200,156 L200,164 C200,165.104569 199.104569,166 198,166 L154,166 C152.895431,166 152,165.104569 152,164 L152,156 C152,154.895431 152.895431,154 154,154 Z" fill="#C678DD"></path>
            <path d="M218,346 L262,346 C263.104569,346 264,346.895431 264,348 L264,356 C264,357.104569 263.104569,358 262,358 L218,358 C216.895431,358 216,357.104569 216,356 L216,348 C216,346.895431 216.895431,346 218,346 Z" fill="#C678DD"></path>
            <path d="M218,130 L278,130 C279.104569,130 280,130.895431 280,132 L280,140 C280,141.104569 279.104569,142 278,142 L218,142 C216.895431,142 216,141.104569 216,140 L216,132 C216,130.895431 216.895431,130 218,130 Z" fill="#61AFEF"></path>
            <path d="M314,298 L374,298 C375.104569,298 376,298.895431 376,300 L376,308 C376,309.104569 375.104569,310 374,310 L314,310 C312.895431,310 312,309.104569 312,308 L312,300 C312,298.895431 312.895431,298 314,298 Z" fill="#61AFEF"></path>
            <rect fill="#E06C75" x="152" y="202" width="120" height="12" rx="2"></rect>
            <rect fill="#E06C75" x="280" y="346" width="120" height="12" rx="2"></rect>
            <rect fill="#E06C75" x="216" y="154" width="120" height="12" rx="2"></rect>
            <path d="M290,226 L350,226 C351.104569,226 352,226.895431 352,228 L352,236 C352,237.104569 351.104569,238 350,238 L290,238 C288.895431,238 288,237.104569 288,236 L288,228 C288,226.895431 288.895431,226 290,226 Z" fill="#E06C75"></path>
            <path d="M266,298 L294,298 C295.104569,298 296,298.895431 296,300 L296,308 C296,309.104569 295.104569,310 294,310 L266,310 C264.895431,310 264,309.104569 264,308 L264,300 C264,298.895431 264.895431,298 266,298 Z" fill="#E06C75"></path>
            <path d="M186,250 L230,250 C231.104569,250 232,250.895431 232,252 L232,260 C232,261.104569 231.104569,262 230,262 L186,262 C184.895431,262 184,261.104569 184,260 L184,252 C184,250.895431 184.895431,250 186,250 Z" fill="#98C379"></path>
            <rect fill="#E06C75" x="248" y="250" width="120" height="12" rx="2"></rect>
            <path d="M186,274 L302,274 C303.104569,274 304,274.895431 304,276 L304,284 C304,285.104569 303.104569,286 302,286 L186,286 C184.895431,286 184,285.104569 184,284 L184,276 C184,274.895431 184.895431,274 186,274 Z" fill="#98C379"></path>
            <path d="M322,274 L406,274 C407.104569,274 408,274.895431 408,276 L408,284 C408,285.104569 407.104569,286 406,286 L322,286 C320.895431,286 320,285.104569 320,284 L320,276 C320,274.895431 320.895431,274 322,274 Z" fill="#E06C75"></path>
            <path d="M186,298 L246,298 C247.104569,298 248,298.895431 248,300 L248,308 C248,309.104569 247.104569,310 246,310 L186,310 C184.895431,310 184,309.104569 184,308 L184,300 C184,298.895431 184.895431,298 186,298 Z" fill="#98C379"></path>
            <rect fill="#D7DAE0" x="32" y="200" width="48" height="12" rx="2"></rect>
            <rect fill="#D7DAE0" x="32" y="224" width="64" height="12" rx="2"></rect>
            <rect fill="#D7DAE0" x="16" y="248" width="48" height="12" rx="2"></rect>
            <rect fill="#D7DAE0" x="16" y="272" width="48" height="12" rx="2"></rect>
            <path d="M354,154 L438,154 C439.104569,154 440,154.895431 440,156 L440,164 C440,165.104569 439.104569,166 438,166 L354,166 C352.895431,166 352,165.104569 352,164 L352,156 C352,154.895431 352.895431,154 354,154 Z" fill="#98C379"></path>
        </g>
    </g>
</svg>