<svg width="540" height="401" viewBox="0 0 540 401" fill="none" xmlns="http://www.w3.org/2000/svg">
<rect x="120" width="420" height="401" fill="#F0F1F2"/>
<rect x="120" width="420" height="88" fill="white"/>
<rect width="120" height="401" fill="#0A0E39"/>
<rect x="136" y="148" width="388" height="32" rx="2" fill="white"/>
<circle cx="24" cy="24" r="8" fill="#FF6058"/>
<circle cx="48" cy="24" r="8" fill="#FFC12E"/>
<circle cx="72" cy="24" r="8" fill="#28CE41"/>
<circle cx="512" cy="66" r="12" fill="#202021"/>
<circle cx="152" cy="164" r="8" fill="#202021"/>
<rect x="136" y="104" width="120" height="16" rx="2" fill="#202021"/>
<rect x="460" y="104" width="64" height="16" rx="2" fill="#224CBF"/>
<rect x="168" y="156" width="120" height="8" rx="2" fill="#202021"/>
<rect x="168" y="168" width="64" height="4" rx="2" fill="#545556"/>
<rect x="310" y="156" width="64" height="8" rx="2" fill="#202021"/>
<rect x="310" y="168" width="64" height="4" rx="2" fill="#545556"/>
<rect x="420" y="156" width="48" height="4" rx="2" fill="#545556"/>
<rect x="444" y="70" width="48" height="4" rx="2" fill="#545556"/>
<rect x="420" y="164" width="32" height="8" rx="2" fill="#202021"/>
<rect x="508" y="160" width="8" height="8" rx="2" fill="#224CBF"/>
<rect x="136" y="184" width="388" height="32" rx="2" fill="white"/>
<circle cx="152" cy="200" r="8" fill="#202021"/>
<rect x="168" y="192" width="88" height="8" rx="2" fill="#202021"/>
<rect x="168" y="204" width="64" height="4" rx="2" fill="#545556"/>
<rect x="310" y="192" width="64" height="8" rx="2" fill="#202021"/>
<rect x="310" y="204" width="48" height="4" rx="2" fill="#545556"/>
<rect x="420" y="192" width="48" height="4" rx="2" fill="#545556"/>
<rect x="420" y="200" width="64" height="8" rx="2" fill="#202021"/>
<rect x="508" y="196" width="8" height="8" rx="2" fill="#224CBF"/>
<rect x="136" y="220" width="388" height="32" rx="2" fill="white"/>
<circle cx="152" cy="236" r="8" fill="#202021"/>
<rect x="168" y="228" width="88" height="8" rx="2" fill="#202021"/>
<rect x="168" y="240" width="64" height="4" rx="2" fill="#545556"/>
<rect x="310" y="228" width="88" height="8" rx="2" fill="#202021"/>
<rect x="310" y="240" width="48" height="4" rx="2" fill="#545556"/>
<rect x="420" y="228" width="48" height="4" rx="2" fill="#545556"/>
<rect x="420" y="236" width="48" height="8" rx="2" fill="#202021"/>
<rect x="508" y="232" width="8" height="8" rx="2" fill="#224CBF"/>
<rect x="136" y="256" width="388" height="32" rx="2" fill="white"/>
<circle cx="152" cy="272" r="8" fill="#202021"/>
<rect x="168" y="264" width="120" height="8" rx="2" fill="#202021"/>
<rect x="168" y="276" width="64" height="4" rx="2" fill="#545556"/>
<rect x="310" y="264" width="48" height="8" rx="2" fill="#202021"/>
<rect x="310" y="276" width="48" height="4" rx="2" fill="#545556"/>
<rect x="420" y="264" width="48" height="4" rx="2" fill="#545556"/>
<rect x="420" y="272" width="48" height="8" rx="2" fill="#202021"/>
<rect x="508" y="268" width="8" height="8" rx="2" fill="#224CBF"/>
<rect x="136" y="293" width="388" height="32" rx="2" fill="white"/>
<circle cx="152" cy="309" r="8" fill="#202021"/>
<rect x="168" y="301" width="64" height="8" rx="2" fill="#202021"/>
<rect x="168" y="313" width="64" height="4" rx="2" fill="#545556"/>
<rect x="310" y="301" width="64" height="8" rx="2" fill="#202021"/>
<rect x="310" y="313" width="88" height="4" rx="2" fill="#545556"/>
<rect x="420" y="301" width="48" height="4" rx="2" fill="#545556"/>
<rect x="420" y="309" width="64" height="8" rx="2" fill="#202021"/>
<rect x="508" y="305" width="8" height="8" rx="2" fill="#224CBF"/>
<rect x="136" y="140" width="64" height="4" rx="2" fill="#545556"/>
<rect x="16" y="100" width="48" height="8" rx="2" fill="white"/>
<rect opacity="0.791457" x="16" y="120" width="64" height="8" rx="2" fill="#BEBFC0"/>
<rect opacity="0.791457" x="16" y="140" width="48" height="8" rx="2" fill="#BEBFC0"/>
<rect opacity="0.791457" x="16" y="160" width="48" height="8" rx="2" fill="#BEBFC0"/>
<rect opacity="0.803246" x="16" y="369" width="64" height="8" rx="2" fill="#BEBFC0"/>
<rect x="404" y="58" width="88" height="8" rx="2" fill="#202021"/>
<path fill-rule="evenodd" clip-rule="evenodd" d="M36.9211 73.8969C36.8308 73.7958 36.7831 73.6637 36.7877 73.5283V58.9423C36.781 58.8001 36.8287 58.6607 36.9211 58.5524C37.0132 58.4539 37.1438 58.4007 37.2785 58.4067H43.3771C44.9547 58.4067 46.1457 58.7865 46.9502 59.5462C47.7547 60.3059 48.1569 61.296 48.1569 62.5165C48.1569 63.3501 47.9631 64.0463 47.5754 64.605C47.2347 65.1221 46.7651 65.5415 46.2129 65.8218C46.8717 66.152 47.428 66.6556 47.8219 67.2784C48.258 67.9492 48.4835 68.735 48.4695 69.535C48.4789 70.3308 48.2825 71.1154 47.8992 71.8129C47.508 72.509 46.9219 73.0756 46.2129 73.4431C45.466 73.8457 44.5801 74.0467 43.5552 74.0459H37.2807C37.1448 74.0514 37.0133 73.9969 36.9211 73.8969ZM43.0421 65.0454C44.0086 65.0454 44.7455 64.8258 45.2527 64.3865C45.7599 63.9473 46.0131 63.3329 46.0124 62.5434C46.0124 61.7688 45.7629 61.1806 45.2639 60.7787C44.7649 60.3768 44.0243 60.1759 43.0421 60.1759H38.8875V65.0454H43.0421ZM45.5071 71.5115C44.9655 72.0246 44.2185 72.2812 43.2662 72.2812L38.8875 72.2779V66.7877H43.2662C44.2163 66.7892 44.9633 67.042 45.5071 67.5462C46.0509 68.0504 46.3227 68.7133 46.3227 69.535C46.3205 70.3395 46.0486 70.9983 45.5071 71.5115Z" fill="white"/>
<path fill-rule="evenodd" clip-rule="evenodd" d="M49.7479 68.9713C49.8338 70.6094 50.3305 71.9013 51.2381 72.847C52.1464 73.7926 53.3602 74.2654 54.8795 74.2654C55.7507 74.2817 56.6151 74.1101 57.414 73.7624C58.1505 73.4262 58.72 73.027 59.1227 72.5646C59.5253 72.1022 59.7266 71.7075 59.7266 71.3803C59.7282 71.2656 59.6739 71.1573 59.5809 71.0901C59.4812 71.0153 59.3594 70.9758 59.2347 70.978H58.2521C58.1229 70.9698 57.9935 70.9889 57.8722 71.0341C57.748 71.1206 57.6418 71.2306 57.5596 71.3579C57.2834 71.7027 56.9466 71.9943 56.5658 72.2184C56.1258 72.4933 55.5563 72.6307 54.8571 72.6307C53.9525 72.6307 53.2239 72.2901 52.6711 71.6089C52.1184 70.9276 51.8196 70.1015 51.7748 69.1304V68.9287H59.5316C59.6693 68.9338 59.8029 68.8814 59.9004 68.7841C59.998 68.6868 60.0507 68.5533 60.0459 68.4156V68.0133C60.0474 66.2258 59.597 64.8111 58.6947 63.7691C57.7923 62.7271 56.5225 62.2061 54.8851 62.2061C53.3658 62.2068 52.152 62.6834 51.2437 63.6357C50.3354 64.5881 49.8368 65.8684 49.7479 67.4766L49.7255 68.2117L49.7479 68.9713ZM58.0067 67.3411V67.4083H51.7748V67.3411C51.777 66.2983 52.0523 65.4494 52.6005 64.7943C53.1488 64.1392 53.9085 63.8117 54.8795 63.8117C55.8319 63.8109 56.5912 64.1385 57.1574 64.7943C57.7236 65.4501 58.0067 66.2991 58.0067 67.3411Z" fill="white"/>
<path d="M61.7916 73.8969C61.6946 73.7987 61.6423 73.665 61.647 73.5271V62.9635C61.6438 62.8229 61.6957 62.6866 61.7916 62.5837C61.8859 62.4805 62.0204 62.4233 62.1602 62.4268H63.098C63.2433 62.4164 63.386 62.4696 63.489 62.5726C63.592 62.6756 63.6451 62.8182 63.6347 62.9635V63.9462C64.2457 62.9333 65.2806 62.4268 66.7395 62.4268H67.61C67.7504 62.4122 67.8899 62.4617 67.9897 62.5615C68.0895 62.6613 68.1389 62.8008 68.1243 62.9411V63.7669C68.1293 63.9026 68.081 64.0349 67.9899 64.1355C67.8904 64.2369 67.7518 64.29 67.61 64.2812H66.3372C65.5156 64.2812 64.8717 64.5195 64.4056 64.996C63.9395 65.4726 63.7049 66.1202 63.7019 66.9389V73.5271C63.7055 73.6669 63.6482 73.8014 63.5451 73.8957C63.4422 73.9916 63.3058 74.0435 63.1652 74.0403H62.1568C62.0206 74.044 61.8888 73.9922 61.7916 73.8969Z" fill="white"/>
<path d="M69.0734 73.8968C68.976 73.7993 68.9233 73.6659 68.9278 73.5281V62.941C68.9233 62.8033 68.9761 62.6699 69.0735 62.5725C69.171 62.4751 69.3043 62.4223 69.442 62.4267H70.4023C70.5427 62.4116 70.6823 62.461 70.7821 62.5609C70.8818 62.6609 70.9308 62.8007 70.9154 62.941V63.9236C71.3367 63.3938 71.8661 62.9599 72.4684 62.6508C73.057 62.352 73.7901 62.2026 74.6678 62.2026C76.0975 62.2026 77.2071 62.6605 77.9967 63.5763C78.7862 64.4921 79.1806 65.7018 79.1799 67.2054V73.527C79.1849 73.6646 79.1325 73.7981 79.0351 73.8955C78.9378 73.9928 78.8043 74.0452 78.6667 74.0402H77.6392C77.5015 74.0452 77.368 73.9928 77.2704 73.8955C77.1729 73.7982 77.1202 73.6647 77.125 73.527V67.341C77.125 66.2691 76.8635 65.4351 76.3406 64.8391C75.8178 64.243 75.073 63.9442 74.1065 63.9427C73.1533 63.9427 72.394 64.2441 71.8286 64.8469C71.2631 65.4497 70.98 66.2799 70.9793 67.3377V73.527C70.9844 73.6646 70.9319 73.7981 70.8346 73.8955C70.7372 73.9928 70.6037 74.0452 70.4661 74.0402H69.4387C69.3025 74.0442 69.1705 73.9924 69.0734 73.8968Z" fill="white"/>
<path fill-rule="evenodd" clip-rule="evenodd" d="M81.0229 72.6019C81.4018 73.1269 81.9091 73.5459 82.4963 73.8187C83.127 74.1207 83.8183 74.2747 84.5176 74.2691C85.5006 74.2683 86.3047 74.1044 86.9299 73.7772C87.5033 73.4942 87.9952 73.0701 88.3596 72.5447V73.5274C88.3548 73.663 88.403 73.7953 88.4941 73.896C88.5865 73.9939 88.717 74.0466 88.8515 74.0405H89.8353C89.9728 74.0456 90.1063 73.9932 90.2037 73.8958C90.3011 73.7984 90.3535 73.6649 90.3484 73.5274V66.2691C90.3492 65.1083 89.988 64.1406 89.2649 63.366C88.5419 62.5914 87.3467 62.2041 85.6795 62.2041C84.7137 62.2034 83.8946 62.3707 83.2224 62.7061C82.5516 63.0407 82.0564 63.4355 81.7367 63.8904C81.417 64.3453 81.2571 64.7434 81.2571 65.0848C81.2589 65.3552 81.4774 65.5742 81.7479 65.5767H82.6196C82.7187 65.5826 82.817 65.555 82.8986 65.4982C82.9862 65.4152 83.0516 65.3116 83.089 65.1968C83.3055 64.7996 83.6208 64.465 84.0044 64.2254C84.422 63.9498 84.9729 63.8119 85.6571 63.8119C87.4289 63.8127 88.3148 64.5795 88.3148 66.1122V66.761L84.9647 67.2293C83.5805 67.4392 82.4862 67.8564 81.6818 68.4809C80.8773 69.1053 80.475 69.9094 80.475 70.8932C80.4712 71.5065 80.6632 72.1051 81.0229 72.6019ZM88.3148 68.882C88.3148 70.104 88.0022 71.0347 87.377 71.6741C86.7518 72.312 85.9477 72.631 84.9647 72.631C84.3384 72.6508 83.7203 72.4843 83.1888 72.1526C82.7043 71.8523 82.4185 71.3149 82.4403 70.7453C82.4403 70.206 82.7159 69.7578 83.2672 69.4007C83.8184 69.0437 84.63 68.7905 85.7019 68.6411L88.3148 68.2612V68.882Z" fill="white"/>
<path d="M31.2448 66.3429H26.4269L25.5966 68.4359C25.5163 68.6405 25.3093 68.7662 25.0907 68.7432C24.8722 68.7202 24.6959 68.5541 24.6599 68.3373L23.8756 63.7726L23.0241 68.4471C22.9815 68.6779 22.7821 68.7899 22.5479 68.7899C22.3137 68.7899 22.1143 68.6868 22.0683 68.4605L21.4218 65.3479L20.9938 66.0885C20.9068 66.2404 20.7475 66.3366 20.5725 66.3429H16.6678C16.3978 66.3429 16.6006 66.102 16.6006 65.8342C16.6006 65.5664 16.4661 65.3647 16.7361 65.3647H20.2936L21.2224 63.7961C21.3257 63.6223 21.5248 63.5294 21.7244 63.5619C21.9244 63.5944 22.0834 63.7475 22.1232 63.9462L22.5176 65.851L23.4174 60.8661C23.4609 60.6351 23.6641 60.4687 23.8992 60.4717C24.1353 60.469 24.3389 60.6371 24.3809 60.8695L25.3378 66.4572L25.6448 65.6728C25.7182 65.4854 25.8984 65.3615 26.0997 65.3602L31.2459 65.3714" fill="white"/>
<path fill-rule="evenodd" clip-rule="evenodd" d="M23.7098 75.9204L23.8655 75.9798L24.0213 75.9204C27.9462 74.4078 30.4594 72.1008 31.7042 68.8672L31.7311 68.7978V56.8381L31.4454 56.744C30.3238 56.3731 27.5451 56 23.8655 56C20.186 56 17.4062 56.3731 16.2857 56.744L16 56.8381V68.7978L16.0269 68.8672C17.2717 72.1008 19.7882 74.4078 23.7098 75.9204ZM23.8655 75.098C20.2924 73.6908 17.9933 71.5753 16.8437 68.6487V57.4364C17.8476 57.1754 20.1804 56.819 23.8655 56.819C27.5507 56.819 29.8801 57.1754 30.8885 57.4364V68.6487C29.7378 71.5753 27.4398 73.6874 23.8655 75.098Z" fill="white"/>
</svg>
