<?xml version="1.0" encoding="UTF-8"?>
<svg width="586px" height="447px" viewBox="0 0 586 447" version="1.1" xmlns="http://www.w3.org/2000/svg" xmlns:xlink="http://www.w3.org/1999/xlink">
    <title>Berna illustration</title>
    <defs>
        <filter x="-5.7%" y="-7.7%" width="111.5%" height="115.5%" filterUnits="objectBoundingBox" id="filter-1">
            <feOffset dx="0" dy="0" in="SourceAlpha" result="shadowOffsetOuter1"></feOffset>
            <feGaussianBlur stdDeviation="8" in="shadowOffsetOuter1" result="shadowBlurOuter1"></feGaussianBlur>
            <feColorMatrix values="0 0 0 0 0   0 0 0 0 0   0 0 0 0 0  0 0 0 0.2 0" type="matrix" in="shadowBlurOuter1" result="shadowMatrixOuter1"></feColorMatrix>
            <feMerge>
                <feMergeNode in="shadowMatrixOuter1"></feMergeNode>
                <feMergeNode in="SourceGraphic"></feMergeNode>
            </feMerge>
        </filter>
        <rect id="path-2" x="0" y="0" width="540" height="401" rx="8"></rect>
        <path d="M46,92 C71.213151,92 92,71.4050985 92,46 C92,20.5949015 71.4050985,0 46,0 C20.5949015,0 0,20.5949015 0,46 C0,71.4050985 20.786849,92 46,92 Z" id="path-4"></path>
        <mask id="mask-5" maskContentUnits="userSpaceOnUse" maskUnits="objectBoundingBox" x="0" y="0" width="92" height="92" fill="white">
            <use xlink:href="#path-4"></use>
        </mask>
    </defs>
    <g stroke="none" stroke-width="1" fill="none" fill-rule="evenodd">
        <g filter="url(#filter-1)" transform="translate(23.000000, 23.000000)">
            <mask id="mask-3" fill="white">
                <use xlink:href="#path-2"></use>
            </mask>
            <g fill-rule="nonzero"></g>
            <rect fill="#F5F5F5" mask="url(#mask-3)" x="120" y="0" width="420" height="401"></rect>
            <rect fill="#FFFFFF" mask="url(#mask-3)" x="120" y="0" width="420" height="88"></rect>
            <rect fill="#0F1833" mask="url(#mask-3)" x="0" y="0" width="120" height="408"></rect>
            <rect fill="#FFFFFF" mask="url(#mask-3)" x="136" y="132" width="248" height="134" rx="2"></rect>
            <rect fill="#FFFFFF" mask="url(#mask-3)" x="400" y="132" width="124" height="150" rx="2"></rect>
            <circle fill="#FF6058" fill-rule="nonzero" mask="url(#mask-3)" cx="24" cy="24" r="8"></circle>
            <circle fill="#FFC12E" fill-rule="nonzero" mask="url(#mask-3)" cx="48" cy="24" r="8"></circle>
            <circle fill="#28CE41" fill-rule="nonzero" mask="url(#mask-3)" cx="72" cy="24" r="8"></circle>
            <circle fill="#202021" fill-rule="nonzero" mask="url(#mask-3)" cx="512" cy="66" r="12"></circle>
            <rect fill="#202021" mask="url(#mask-3)" x="136" y="104" width="120" height="12" rx="2"></rect>
            <rect fill="#202021" mask="url(#mask-3)" x="152" y="148" width="64" height="12" rx="2"></rect>
            <rect fill="#2E499A" mask="url(#mask-3)" x="136" y="60" width="88" height="12" rx="2"></rect>
            <rect fill="#202021" mask="url(#mask-3)" x="416" y="148" width="60" height="12" rx="2"></rect>
            <rect fill="#FFFFFF" mask="url(#mask-3)" x="400" y="296" width="124" height="112" rx="2"></rect>
            <rect fill="#202021" mask="url(#mask-3)" x="416" y="312" width="45" height="12" rx="2"></rect>
            <rect fill="#545556" mask="url(#mask-3)" x="416" y="340" width="92" height="12" rx="2"></rect>
            <rect fill="#545556" mask="url(#mask-3)" x="416" y="360" width="92" height="12" rx="2"></rect>
            <rect fill="#545556" mask="url(#mask-3)" x="416" y="380" width="92" height="12" rx="2"></rect>
            <rect fill="#545556" mask="url(#mask-3)" x="152" y="175" width="12" height="12" rx="2"></rect>
            <rect fill="#545556" mask="url(#mask-3)" x="152" y="196" width="12" height="12" rx="2"></rect>
            <rect fill="#545556" mask="url(#mask-3)" x="152" y="217" width="12" height="12" rx="2"></rect>
            <rect fill="#545556" mask="url(#mask-3)" x="152" y="238" width="32" height="12" rx="2"></rect>
            <rect fill="#545556" mask="url(#mask-3)" x="192" y="238" width="32" height="12" rx="2"></rect>
            <rect fill="#545556" mask="url(#mask-3)" x="232" y="238" width="32" height="12" rx="2"></rect>
            <rect fill="#545556" mask="url(#mask-3)" x="272" y="238" width="32" height="12" rx="2"></rect>
            <rect fill="#545556" mask="url(#mask-3)" x="312" y="238" width="32" height="12" rx="2"></rect>
            <rect fill="#FFFFFF" mask="url(#mask-3)" x="136" y="282" width="248" height="109" rx="2"></rect>
            <rect fill="#202021" mask="url(#mask-3)" x="152" y="298" width="88" height="12" rx="2"></rect>
            <rect fill="#202021" mask="url(#mask-3)" x="152" y="325" width="64" height="12" rx="2"></rect>
            <rect fill="#545556" mask="url(#mask-3)" x="152" y="346" width="48" height="12" rx="2"></rect>
            <rect fill="#545556" mask="url(#mask-3)" x="260" y="346" width="48" height="12" rx="2"></rect>
            <rect fill="#545556" mask="url(#mask-3)" x="260" y="363" width="32" height="12" rx="2"></rect>
            <rect fill="#545556" mask="url(#mask-3)" x="152" y="363" width="32" height="12" rx="2"></rect>
            <rect fill="#202021" mask="url(#mask-3)" x="260" y="325" width="32" height="12" rx="2"></rect>
            <rect fill="#FFFFFF" mask="url(#mask-3)" x="16" y="100" width="48" height="12" rx="2"></rect>
            <rect fill="#B7BAC2" opacity="0.791457403" mask="url(#mask-3)" x="16" y="127" width="64" height="12" rx="2"></rect>
            <rect fill="#B7BAC2" opacity="0.791457403" mask="url(#mask-3)" x="16" y="154" width="48" height="12" rx="2"></rect>
            <rect fill="#B7BAC2" opacity="0.803245908" mask="url(#mask-3)" x="16" y="365" width="64" height="12" rx="2"></rect>
            <rect fill="#202021" mask="url(#mask-3)" x="428" y="60" width="64" height="12" rx="2"></rect>
            <path d="M178.749023,212.53418 C193.388997,191.200846 205.895182,180.53418 216.267578,180.53418 C231.826172,180.53418 236.953125,217 256,217 C275.046875,217 289,196.53418 304,196.53418 C314,196.53418 328.833333,200.044785 348.5,207.065997" id="Path-2" stroke="#2E499A" stroke-width="12" stroke-linecap="round" stroke-linejoin="round"></path>
            <g transform="translate(416.000000, 176.000000)">
                <circle stroke="#E0E1E2" stroke-width="12.2666667" cx="46" cy="46" r="39.8666667"></circle>
                <use stroke="#A63446" mask="url(#mask-5)" stroke-width="24.5333333" stroke-dasharray="215.9040229103782" transform="translate(46.000000, 46.000000) scale(1, -1) translate(-46.000000, -46.000000) " xlink:href="#path-4"></use>
                <rect fill="#A63446" x="39.8666667" y="0" width="12.2666667" height="12.2666667" rx="6.13333333"></rect>
                <rect fill="#A63446" x="0" y="39.8666667" width="12.2666667" height="12.2666667" rx="6.13333333"></rect>
                <rect fill="#545556" x="30" y="45" width="32" height="12" rx="2"></rect>
                <rect fill="#A63446" x="40" y="29" width="12" height="12" rx="2"></rect>
            </g>
            <g transform="translate(16.000000, 56.000000)" fill="#FFFFFF" fill-rule="nonzero">
                <path d="M20.9210084,17.8969188 C20.8307826,17.7957796 20.7830261,17.6637469 20.7876751,17.5282913 L20.7876751,2.94229692 C20.7809678,2.80010554 20.8286404,2.66069315 20.9210084,2.55238095 C21.0131611,2.4539613 21.143736,2.40074896 21.2784314,2.40672269 L27.3770308,2.40672269 C28.9546218,2.40672269 30.1456583,2.78655462 30.9501401,3.54621849 C31.7546218,4.30588235 32.1568627,5.29598506 32.1568627,6.51652661 C32.1568627,7.35014006 31.9630252,8.04631186 31.5753501,8.60504202 C31.2346525,9.12215101 30.7650642,9.54153658 30.2128852,9.82184874 C30.8716908,10.1520189 31.4279723,10.6556164 31.8218487,11.2784314 C32.2579386,11.949206 32.4834735,12.735066 32.4694678,13.535014 C32.4788884,14.3307699 32.2824297,15.1154468 31.8991597,15.8128852 C31.50793,16.509006 30.9218223,17.0756417 30.2128852,17.4431373 C29.4659197,17.8457516 28.5800187,18.0466853 27.5551821,18.0459384 L21.2806723,18.0459384 C21.1447319,18.051413 21.0132417,17.9969326 20.9210084,17.8969188 L20.9210084,17.8969188 Z M27.0420168,9.04537815 C28.0085901,9.04537815 28.7454715,8.82577031 29.2526611,8.38655462 C29.7598506,7.94733894 30.0130719,7.33295985 30.0123266,6.54341737 C30.0123266,5.76881419 29.7628385,5.1805789 29.2638655,4.77871148 C28.7648926,4.37684407 28.0242764,4.17591036 27.0420168,4.17591036 L22.887395,4.17591036 L22.887395,9.04537815 L27.0420168,9.04537815 Z M27.2661064,16.2812325 C28.2184874,16.2812325 28.9654528,16.0246499 29.5070028,15.5114846 C30.0485528,14.9983193 30.3204482,14.3394958 30.3226891,13.535014 C30.3226891,12.713352 30.0507937,12.0504202 29.5070028,11.5462185 C28.963212,11.0420168 28.2162465,10.789169 27.2661064,10.7876751 L22.887395,10.7876751 L22.887395,16.2778711 L27.2661064,16.2812325 Z"></path>
                <path d="M35.2380952,16.8470588 C34.3305322,15.9014006 33.8338002,14.6095238 33.7478992,12.9714286 L33.7254902,12.2117647 L33.7478992,11.4767507 C33.836788,9.86853408 34.3353875,8.58823529 35.2436975,7.63585434 C36.1520075,6.68347339 37.3658263,6.20690943 38.8851541,6.20616246 C40.5225023,6.20616246 41.7923436,6.72717087 42.6946779,7.76918768 C43.5970121,8.81120448 44.0474323,10.225957 44.0459384,12.0134454 L44.0459384,12.4156863 C44.0506966,12.5533862 43.9980043,12.6868683 43.9004714,12.7841887 C43.8029386,12.881509 43.6693419,12.9339101 43.5316527,12.9288515 L35.7747899,12.9288515 L35.7747899,13.1305322 C35.8196078,14.1015873 36.118394,14.9277311 36.6711485,15.6089636 C37.2239029,16.2901961 37.9525677,16.6308123 38.8571429,16.6308123 C39.5563025,16.6308123 40.1258637,16.4933707 40.5658263,16.2184874 C40.9466099,15.9943818 41.2833861,15.7027876 41.5596639,15.3579832 C41.6417869,15.2307214 41.7479767,15.1207255 41.8722689,15.0341737 C41.9935381,14.9890237 42.1229605,14.9699349 42.2521008,14.9781513 L43.2347339,14.9781513 C43.3593927,14.9759333 43.4812293,15.0153627 43.5809524,15.0901961 C43.6739087,15.1573997 43.7282676,15.2656993 43.7266106,15.3803922 C43.7266106,15.707563 43.5253035,16.1023343 43.1226891,16.5647059 C42.7200747,17.0270775 42.1505135,17.4263305 41.4140056,17.762465 C40.6151212,18.1102288 39.7506955,18.2818146 38.8795518,18.2655462 C37.3602241,18.2655462 36.1464052,17.7927171 35.2380952,16.8470588 Z M42.0067227,11.4084034 L42.0067227,11.3411765 C42.0067227,10.2991597 41.7236228,9.45023343 41.157423,8.79439776 C40.5912232,8.13856209 39.8319328,7.81101774 38.8795518,7.81176343 C37.9084967,7.81176343 37.1488329,8.13930906 36.6005602,8.79439776 C36.0522876,9.44948646 35.7770308,10.2984127 35.7747899,11.3411765 L35.7747899,11.4084034 L42.0067227,11.4084034 Z"></path>
                <path d="M45.7915966,17.8969188 C45.6946554,17.7987675 45.6423822,17.6650454 45.6470588,17.5271709 L45.6470588,6.96358543 C45.6438254,6.82296433 45.6956967,6.68665128 45.7915966,6.5837535 C45.8859656,6.48056057 46.0204325,6.42334063 46.1602241,6.42689076 L47.0980392,6.42689076 C47.2433334,6.41643521 47.3860035,6.46961287 47.4890076,6.57261701 C47.5920118,6.67562116 47.6451894,6.81829129 47.6347339,6.96358543 L47.6347339,7.94621849 C48.2457516,6.93333333 49.2806723,6.42689076 50.7394958,6.42689076 L51.610084,6.42689076 C51.7504507,6.41229126 51.8899172,6.46176392 51.9897069,6.56155359 C52.0894966,6.66134326 52.1389692,6.80080976 52.1243697,6.94117647 L52.1243697,7.76694678 C52.1293025,7.902649 52.0810596,8.03491506 51.989916,8.13557423 C51.8904207,8.23691411 51.7518272,8.29006208 51.610084,8.28123249 L50.3372549,8.28123249 C49.5155929,8.28123249 48.8717087,8.51951447 48.4056022,8.99607843 C47.9394958,9.47264239 47.7049486,10.1202614 47.7019608,10.9389356 L47.7019608,17.5271709 C47.7055109,17.6669624 47.648291,17.8014293 47.545098,17.8957983 C47.4422003,17.9916982 47.3058872,18.0435696 47.1652661,18.0403361 L46.1568627,18.0403361 C46.0206909,18.0440741 45.8888476,17.9923074 45.7915966,17.8969188 L45.7915966,17.8969188 Z"></path>
                <path d="M53.0733894,17.8969188 C52.9759842,17.7994497 52.9232595,17.6660156 52.9277311,17.5282913 L52.9277311,6.94117647 C52.9233263,6.80347628 52.976094,6.67009079 53.0735126,6.57267225 C53.1709311,6.47525371 53.3043166,6.42248597 53.4420168,6.42689076 L54.4022409,6.42689076 C54.5426296,6.41179234 54.6822949,6.46114629 54.7820282,6.56109736 C54.8817615,6.66104842 54.9308107,6.80082104 54.9154062,6.94117647 L54.9154062,7.92380952 C55.336702,7.39397913 55.8661167,6.96005769 56.4683473,6.65098039 C57.0569561,6.35219421 57.7901027,6.20280112 58.6677871,6.20280112 C60.097479,6.20280112 61.2070962,6.66069094 61.9966387,7.57647059 C62.7861811,8.49225023 63.1805789,9.70196078 63.1798319,11.2056022 L63.1798319,17.5271709 C63.1849098,17.6647647 63.1324767,17.7982614 63.035117,17.8956212 C62.9377572,17.9929809 62.8042605,18.045414 62.6666667,18.0403361 L61.6392157,18.0403361 C61.5015265,18.0453946 61.3679298,17.9929936 61.2703969,17.8956733 C61.1728641,17.7983529 61.1201718,17.6648708 61.12493,17.5271709 L61.12493,11.3411765 C61.12493,10.269281 60.8634921,9.43529412 60.3406162,8.83921569 C59.8177404,8.24313725 59.0730159,7.94435107 58.1064426,7.94285714 C57.1533147,7.94285714 56.3940243,8.2442577 55.8285714,8.84705882 C55.2631186,9.44985994 54.9800187,10.280112 54.9792717,11.3378151 L54.9792717,17.5271709 C54.9843495,17.6647647 54.9319165,17.7982614 54.8345567,17.8956212 C54.737197,17.9929809 54.6037002,18.045414 54.4661064,18.0403361 L53.4386555,18.0403361 C53.302438,18.0443351 53.1704961,17.9925297 53.0733894,17.8969188 Z"></path>
                <path d="M66.4963585,17.8184874 C65.9091305,17.5457524 65.4017931,17.1267651 65.0229692,16.6016807 C64.6632205,16.1049056 64.4712872,15.5063407 64.4750152,14.8929972 C64.4750152,13.9092437 64.8773109,13.1051354 65.6817927,12.4806723 C66.4862745,11.8562092 67.5805789,11.4390289 68.9647059,11.2291317 L72.3148459,10.7607843 L72.3148459,10.1120448 C72.3148459,8.57927171 71.4289449,7.81251167 69.6571429,7.81176471 C68.9729225,7.81176471 68.4220355,7.94957983 68.0044818,8.22521008 C67.6208449,8.46486176 67.3055439,8.79945901 67.0890756,9.19663866 C67.0516653,9.31139604 66.9861931,9.41499622 66.8985994,9.49803922 C66.8170778,9.55483315 66.7187813,9.58246671 66.6196078,9.57647059 L65.7478992,9.57647059 C65.4774435,9.57402908 65.2589676,9.3550544 65.2571429,9.08459384 C65.2571429,8.74323063 65.4169935,8.34509804 65.7366947,7.89019608 C66.0563959,7.43529412 66.551634,7.04052288 67.222409,6.70588235 C67.8946779,6.37049486 68.7137255,6.2031746 69.6795518,6.20391908 C71.3467787,6.20391908 72.5419234,6.59122316 73.264986,7.36582633 C73.9880486,8.14042951 74.3492063,9.10812325 74.3484594,10.2689076 L74.3484594,17.5271709 C74.3535372,17.6647647 74.3011041,17.7982614 74.2037444,17.8956212 C74.1063847,17.9929809 73.9728879,18.045414 73.8352941,18.0403361 L72.8515406,18.0403361 C72.7170463,18.046446 72.5865595,17.9936786 72.4941176,17.8957983 C72.4030774,17.7950769 72.3548503,17.6628542 72.3596639,17.5271709 L72.3596639,16.5445378 C71.9952773,17.0699156 71.5033044,17.4940302 70.929972,17.7770308 C70.3047619,18.1042017 69.5006536,18.2681606 68.5176471,18.2689076 C67.818384,18.2745673 67.1270574,18.1205134 66.4963585,17.8184874 Z M71.3770308,15.6739496 C72.0022409,15.0345472 72.3148459,14.1038282 72.3148459,12.8817927 L72.3148459,12.2610644 L69.7019608,12.6408964 C68.6300654,12.7902894 67.8184874,13.0435107 67.2672269,13.4005602 C66.7159664,13.7576097 66.4403361,14.205789 66.4403361,14.745098 C66.418505,15.3146766 66.7043212,15.8520795 67.1887955,16.152381 C67.7203623,16.4841205 68.3384298,16.6506283 68.9647059,16.6308123 C69.9477124,16.6308123 70.7518207,16.3118581 71.3770308,15.6739496 L71.3770308,15.6739496 Z"></path>
                <path d="M15.2448179,10.3428571 L10.4268908,10.3428571 L9.59663866,12.4358543 C9.51634956,12.6404452 9.30932068,12.7662318 9.09074716,12.7432241 C8.87217364,12.7202164 8.69587359,12.5540793 8.65994398,12.3372549 L7.87563025,7.77254902 L7.02408964,12.4470588 C6.98151261,12.6778711 6.78207283,12.789916 6.54789916,12.789916 L6.54789916,12.789916 C6.31372549,12.789916 6.11428571,12.6868347 6.06834734,12.4605042 L5.42184874,9.34789916 L4.99383754,10.0885154 C4.90680588,10.2404113 4.74749922,10.3365884 4.57254902,10.3428571 L0.667787115,10.3428571 C0.397759104,10.3428571 0.600560224,10.1019608 0.600560224,9.83417367 C0.600560224,9.56638655 0.466106443,9.36470588 0.736134454,9.36470588 L4.29355742,9.36470588 L5.22240896,7.79607843 C5.32570119,7.62227689 5.52482384,7.52938262 5.72436975,7.56190476 C5.92442634,7.59436775 6.08337003,7.74750732 6.1232493,7.94621849 L6.51764706,9.85098039 L7.41736695,4.86610644 C7.46088189,4.63508669 7.6640962,4.4687345 7.89915966,4.47166943 L7.89915966,4.47166943 C8.13528103,4.4690234 8.33887848,4.63710966 8.38095238,4.86946779 L9.33781513,10.4571429 L9.64481793,9.67282913 C9.71818908,9.48535171 9.89840061,9.36151177 10.0997199,9.36022409 L15.2459384,9.37142857"></path>
                <path d="M7.86554622,19.9798319 L7.70980392,19.9204482 C3.78823529,18.4078431 1.27170868,16.1008403 0.0268907563,12.8672269 L2.53765263e-15,12.7977591 L2.53765263e-15,0.838095238 L0.285714286,0.743977591 C1.40616246,0.373109244 4.1859944,3.80647894e-15 7.86554622,3.80647894e-15 C11.545098,3.80647894e-15 14.3238095,0.373109244 15.4453782,0.743977591 L15.7310924,0.838095238 L15.7310924,12.7977591 L15.7042017,12.8672269 C14.4593838,16.1008403 11.9462185,18.4078431 8.02128852,19.9204482 L7.86554622,19.9798319 Z M0.843697479,12.6487395 C1.99327731,15.5753501 4.29243697,17.6907563 7.86554622,19.0980392 C11.4397759,17.687395 13.7378151,15.5753501 14.8885154,12.6487395 L14.8885154,1.43641457 C13.880112,1.17535014 11.5507003,0.819047619 7.86554622,0.819047619 C4.18039216,0.819047619 1.84761905,1.17535014 0.843697479,1.43641457 L0.843697479,12.6487395 Z"></path>
            </g>
        </g>
    </g>
</svg>