<svg width="540" height="401" viewBox="0 0 540 401" fill="none" xmlns="http://www.w3.org/2000/svg">
<rect width="540" height="401" fill="#D6EAE4"/>
<rect x="246" y="60" width="48" height="12" rx="2" fill="#202020"/>
<rect x="190" y="60" width="48" height="12" rx="2" fill="#202020"/>
<rect x="302" y="60" width="48" height="12" rx="2" fill="#202020"/>
<rect x="210" y="200" width="120" height="8" rx="2" fill="#202020"/>
<rect x="226" y="212" width="88" height="8" rx="2" fill="#202020"/>
<rect x="210" y="236" width="120" height="16" rx="2" fill="#FFDAAB"/>
<rect x="150" y="136" width="240" height="24" rx="2" fill="#202020"/>
<path d="M110 332C110 318.745 120.745 308 134 308H406C419.255 308 430 318.745 430 332V401H110V332Z" fill="#2F4441"/>
<rect x="238" y="320" width="64" height="8" rx="2" fill="white"/>
<rect x="150" y="352" width="48" height="16" rx="2" fill="#FFDAAB"/>
<rect x="142" y="372" width="64" height="16" rx="2" fill="#FFDAAB"/>
<path d="M142 394C142 392.895 142.895 392 144 392H204C205.105 392 206 392.895 206 394V401H142V394Z" fill="#FFDAAB"/>
<rect x="238" y="352" width="64" height="16" rx="2" fill="#FFDAAB"/>
<rect x="238" y="372" width="64" height="16" rx="2" fill="#FFDAAB"/>
<path d="M246 394C246 392.895 246.895 392 248 392H292C293.105 392 294 392.895 294 394V401H246V394Z" fill="#FFDAAB"/>
<rect x="334" y="352" width="64" height="16" rx="2" fill="#FFDAAB"/>
<rect x="342" y="372" width="48" height="16" rx="2" fill="#FFDAAB"/>
<path d="M334 394C334 392.895 334.895 392 336 392H396C397.105 392 398 392.895 398 394V401H334V394Z" fill="#FFDAAB"/>
<circle cx="24" cy="24" r="8" fill="#FF6058"/>
<circle cx="48" cy="24" r="8" fill="#FFC12E"/>
<circle cx="72" cy="24" r="8" fill="#28CE41"/>
<path d="M47.9136 60.7866H42.4429V71.5188H47.9059C52.1201 71.5188 54.6946 69.84 54.6946 66.2127V66.0928C54.6946 62.4579 52.1124 60.7866 47.9136 60.7866ZM51.9438 66.2052C51.9438 68.4235 50.649 69.4353 47.8676 69.4353H45.1246V62.8701H47.8676C50.649 62.8701 51.9438 63.8819 51.9438 66.1002V66.2052Z" fill="#2F4441"/>
<path d="M55.7542 60.7866V71.5188H58.4359V67.157H65.8834V65.096H58.4359V62.8701H66.2512V60.7866H55.7542Z" fill="#2F4441"/>
<path d="M67.2255 60.7866V71.5188H77.3702V69.4353H69.9072V60.7866H67.2255Z" fill="#2F4441"/>
<path d="M84.0873 71.6936C88.4396 71.6936 90.7381 69.6176 90.7381 66.1776V66.1327C90.7381 62.6927 88.4396 60.6167 84.0873 60.6167C79.7278 60.6167 77.4288 62.6927 77.4288 66.1327V66.1776C77.4288 69.6176 79.7278 71.6936 84.0873 71.6936ZM84.0873 69.6326C81.1606 69.6326 80.1873 68.1487 80.1873 66.1776V66.1327C80.1873 64.1616 81.1606 62.6777 84.0873 62.6777C87.0068 62.6777 87.9873 64.1616 87.9873 66.1327V66.1776C87.9873 68.1487 87.0068 69.6326 84.0873 69.6326Z" fill="#2F4441"/>
<path d="M105.588 60.7866L103.167 69.0081L100.845 60.7866H98.0252L95.6883 69.0081L93.2827 60.7866H90.4626L93.9416 71.5188H97.1365L99.3739 64.0692L101.604 71.5188H104.837L108.308 60.7866H105.588Z" fill="#2F4441"/>
<mask id="mask0_1003_73" style="mask-type:alpha" maskUnits="userSpaceOnUse" x="16" y="56" width="21" height="20">
<path d="M36.4354 66C36.4354 60.4772 31.8608 56 26.2177 56C20.5746 56 16 60.4772 16 66C16 71.5229 20.5746 76 26.2177 76C31.8608 76 36.4354 71.5229 36.4354 66Z" fill="#2F4441"/>
</mask>
<g mask="url(#mask0_1003_73)">
<path fill-rule="evenodd" clip-rule="evenodd" d="M19.3362 79.0015C17.2241 79.0015 15.0777 78.1763 12.8894 76.4623L12.2848 77.2022C14.5959 79.0123 16.9489 79.9491 19.3362 79.9491C21.7235 79.9491 24.0766 79.0123 26.3876 77.2022C28.576 75.4882 30.7223 74.6629 32.8345 74.6629C34.9467 74.6629 37.093 75.4882 39.2813 77.2022L39.8859 76.4623C37.5748 74.6521 35.2217 73.7153 32.8345 73.7153C30.4472 73.7153 28.0941 74.6521 25.7831 76.4623C23.5947 78.1763 21.4483 79.0015 19.3362 79.0015Z" fill="#2F4441"/>
<path fill-rule="evenodd" clip-rule="evenodd" d="M19.3362 76.1466C17.2241 76.1466 15.0777 75.3213 12.8894 73.6073L12.2848 74.3472C14.5959 76.1573 16.9489 77.0941 19.3362 77.0941C21.7235 77.0941 24.0766 76.1573 26.3876 74.3472C28.576 72.6332 30.7223 71.8079 32.8345 71.8079C34.9467 71.8079 37.093 72.6332 39.2813 74.3472L39.8859 73.6073C37.5748 71.7972 35.2217 70.8604 32.8345 70.8604C30.4472 70.8604 28.0941 71.7972 25.7831 73.6073C23.5947 75.3213 21.4483 76.1466 19.3362 76.1466Z" fill="#2F4441"/>
<path fill-rule="evenodd" clip-rule="evenodd" d="M19.3362 73.5489C17.2241 73.5489 15.0777 72.7236 12.8894 71.0096L12.2848 71.7495C14.5959 73.5596 16.9489 74.4964 19.3362 74.4964C21.7235 74.4964 24.0766 73.5596 26.3876 71.7495C28.576 70.0355 30.7223 69.2102 32.8345 69.2102C34.9467 69.2102 37.093 70.0355 39.2813 71.7495L39.8859 71.0096C37.5748 69.1995 35.2217 68.2627 32.8345 68.2627C30.4472 68.2627 28.0941 69.1995 25.7831 71.0096C23.5947 72.7236 21.4483 73.5489 19.3362 73.5489Z" fill="#2F4441"/>
<path fill-rule="evenodd" clip-rule="evenodd" d="M19.3362 70.9518C17.2241 70.9518 15.0777 70.1265 12.8894 68.4124L12.2848 69.1523C14.5959 70.9625 16.9489 71.8993 19.3362 71.8993C21.7235 71.8993 24.0766 70.9625 26.3876 69.1523C28.576 67.4383 30.7223 66.6131 32.8345 66.6131C34.9467 66.6131 37.093 67.4383 39.2813 69.1523L39.8859 68.4124C37.5748 66.6023 35.2217 65.6655 32.8345 65.6655C30.4472 65.6655 28.0941 66.6023 25.7831 68.4124C23.5947 70.1265 21.4483 70.9518 19.3362 70.9518Z" fill="#2F4441"/>
<path fill-rule="evenodd" clip-rule="evenodd" d="M19.3362 68.3541C17.2241 68.3541 15.0777 67.5288 12.8894 65.8148L12.2848 66.5547C14.5959 68.3648 16.9489 69.3017 19.3362 69.3017C21.7235 69.3017 24.0766 68.3648 26.3876 66.5547C28.576 64.8407 30.7223 64.0154 32.8345 64.0154C34.9467 64.0154 37.093 64.8407 39.2813 66.5547L39.8859 65.8148C37.5748 64.0047 35.2217 63.0679 32.8345 63.0679C30.4472 63.0679 28.0941 64.0047 25.7831 65.8148C23.5947 67.5288 21.4483 68.3541 19.3362 68.3541Z" fill="#2F4441"/>
<path fill-rule="evenodd" clip-rule="evenodd" d="M19.3362 65.7564C17.2241 65.7564 15.0777 64.9312 12.8894 63.2172L12.2848 63.9571C14.5959 65.7672 16.9489 66.704 19.3362 66.704C21.7235 66.704 24.0766 65.7672 26.3876 63.9571C28.576 62.2431 30.7223 61.4178 32.8345 61.4178C34.9467 61.4178 37.093 62.2431 39.2813 63.9571L39.8859 63.2172C37.5748 61.407 35.2217 60.4702 32.8345 60.4702C30.4472 60.4702 28.0941 61.407 25.7831 63.2172C23.5947 64.9312 21.4483 65.7564 19.3362 65.7564Z" fill="#2F4441"/>
<path fill-rule="evenodd" clip-rule="evenodd" d="M19.3362 62.898C17.2241 62.898 15.0777 62.0727 12.8894 60.3587L12.2848 61.0986C14.5959 62.9088 16.9489 63.8456 19.3362 63.8456C21.7235 63.8456 24.0766 62.9088 26.3876 61.0986C28.576 59.3846 30.7223 58.5593 32.8345 58.5593C34.9467 58.5593 37.093 59.3846 39.2813 61.0986L39.8859 60.3587C37.5748 58.5486 35.2217 57.6118 32.8345 57.6118C30.4472 57.6118 28.0941 58.5486 25.7831 60.3587C23.5947 62.0727 21.4483 62.898 19.3362 62.898Z" fill="#2F4441"/>
<path fill-rule="evenodd" clip-rule="evenodd" d="M19.3362 60.3004C17.2241 60.3004 15.0777 59.4751 12.8894 57.7611L12.2848 58.501C14.5959 60.3111 16.9489 61.2479 19.3362 61.2479C21.7235 61.2479 24.0766 60.3111 26.3876 58.501C28.576 56.787 30.7223 55.9617 32.8345 55.9617C34.9467 55.9617 37.093 56.787 39.2813 58.501L39.8859 57.7611C37.5748 55.951 35.2217 55.0142 32.8345 55.0142C30.4472 55.0142 28.0941 55.951 25.7831 57.7611C23.5947 59.4751 21.4483 60.3004 19.3362 60.3004Z" fill="#2F4441"/>
<path fill-rule="evenodd" clip-rule="evenodd" d="M19.3362 57.7027C17.2241 57.7027 15.0777 56.8775 12.8894 55.1634L12.2848 55.9033C14.5959 57.7135 16.9489 58.6503 19.3362 58.6503C21.7235 58.6503 24.0766 57.7135 26.3876 55.9033C28.576 54.1893 30.7223 53.364 32.8345 53.364C34.9467 53.364 37.093 54.1893 39.2813 55.9033L39.8859 55.1634C37.5748 53.3533 35.2217 52.4165 32.8345 52.4165C30.4472 52.4165 28.0941 53.3533 25.7831 55.1634C23.5947 56.8775 21.4483 57.7027 19.3362 57.7027Z" fill="#2F4441"/>
</g>
</svg>
