<svg width="540" height="401" viewBox="0 0 540 401" fill="none" xmlns="http://www.w3.org/2000/svg">
<rect width="540" height="401" fill="white"/>
<rect x="16" y="325" width="120" height="8" rx="2" fill="#202020"/>
<rect x="16" y="337" width="64" height="8" rx="2" fill="#202020"/>
<rect x="16" y="349" width="64" height="8" rx="2" fill="#202020"/>
<rect x="16" y="361" width="64" height="8" rx="2" fill="#202020"/>
<rect x="420" y="59" width="48" height="12" rx="2" fill="#202020"/>
<rect x="364" y="59" width="48" height="12" rx="2" fill="#202020"/>
<rect x="476" y="59" width="48" height="12" rx="2" fill="#202020"/>
<rect x="364" y="125" width="160" height="160" rx="80" fill="#76433D"/>
<rect x="16" y="211" width="240" height="8" rx="2" fill="#202020"/>
<rect x="16" y="223" width="240" height="8" rx="2" fill="#202020"/>
<rect x="16" y="235" width="240" height="8" rx="2" fill="#202020"/>
<rect x="16" y="247" width="48" height="8" rx="2" fill="#202020"/>
<rect x="16" y="187" width="88" height="8" rx="2" fill="#009244"/>
<rect x="16" y="155" width="240" height="24" rx="2" fill="#202020"/>
<circle cx="24" cy="24" r="8" fill="#FF6058"/>
<circle cx="48" cy="24" r="8" fill="#FFC12E"/>
<circle cx="72" cy="24" r="8" fill="#28CE41"/>
<path d="M16.8849 70H23.7656V68.2251H19.0376V65.794H23.3928V64.0192H19.0376V61.593H23.7457V59.8182H16.8849V70ZM25.4174 70H27.5353V65.4162C27.5353 64.571 28.0723 64.0092 28.7782 64.0092C29.4743 64.0092 29.9416 64.4865 29.9416 65.2372V70H31.9949V65.3366C31.9949 64.5462 32.4473 64.0092 33.2179 64.0092C33.894 64.0092 34.4011 64.4318 34.4011 65.282V70H36.514V64.8643C36.514 63.2088 35.5297 62.2642 34.1078 62.2642C32.9892 62.2642 32.1191 62.8359 31.8059 63.7109H31.7264C31.4828 62.826 30.7022 62.2642 29.6532 62.2642C28.6241 62.2642 27.8436 62.8111 27.5254 63.7109H27.4359V62.3636H25.4174V70ZM38.187 70H40.3049V65.4162C40.3049 64.571 40.8418 64.0092 41.5478 64.0092C42.2438 64.0092 42.7111 64.4865 42.7111 65.2372V70H44.7644V65.3366C44.7644 64.5462 45.2168 64.0092 45.9874 64.0092C46.6635 64.0092 47.1706 64.4318 47.1706 65.282V70H49.2836V64.8643C49.2836 63.2088 48.2992 62.2642 46.8773 62.2642C45.7587 62.2642 44.8887 62.8359 44.5755 63.7109H44.4959C44.2523 62.826 43.4718 62.2642 42.4228 62.2642C41.3936 62.2642 40.6131 62.8111 40.2949 63.7109H40.2054V62.3636H38.187V70ZM53.1341 70.1442C54.2626 70.1442 54.9934 69.652 55.3663 68.9411H55.426V70H57.4345V64.8494C57.4345 63.0298 55.8933 62.2642 54.193 62.2642C52.3635 62.2642 51.1603 63.1392 50.867 64.5312L52.8258 64.6903C52.97 64.1832 53.4224 63.8104 54.1831 63.8104C54.9039 63.8104 55.3166 64.1733 55.3166 64.7997V64.8295C55.3166 65.3217 54.7946 65.3864 53.4672 65.5156C51.9558 65.6548 50.5985 66.1619 50.5985 67.8672C50.5985 69.3786 51.6774 70.1442 53.1341 70.1442ZM53.7406 68.6825C53.0893 68.6825 52.622 68.3793 52.622 67.7976C52.622 67.201 53.1142 66.9077 53.8599 66.8033C54.3223 66.7386 55.0779 66.6293 55.3315 66.4602V67.2706C55.3315 68.071 54.6703 68.6825 53.7406 68.6825ZM61.1955 65.5852C61.2005 64.6009 61.7871 64.0241 62.6422 64.0241C63.4924 64.0241 64.0044 64.581 63.9995 65.5156V70H66.1174V65.1378C66.1174 63.358 65.0733 62.2642 63.4824 62.2642C62.3489 62.2642 61.5286 62.821 61.1855 63.7109H61.0961V62.3636H59.0776V70H61.1955V65.5852ZM72.6836 66.7486C72.6886 67.7727 71.9876 68.3097 71.2269 68.3097C70.4265 68.3097 69.9094 67.7479 69.9045 66.848V62.3636H67.7866V67.2259C67.7915 69.0107 68.8356 70.0994 70.3718 70.0994C71.5202 70.0994 72.3455 69.5078 72.6886 68.6129H72.7681V70H74.8015V62.3636H72.6836V66.7486ZM79.9757 70.1491C81.8649 70.1491 83.1376 69.2294 83.4359 67.8125L81.4771 67.6832C81.2633 68.2649 80.7164 68.5682 80.0105 68.5682C78.9515 68.5682 78.2804 67.8672 78.2804 66.7287V66.7237H83.4806V66.142C83.4806 63.5469 81.9096 62.2642 79.8912 62.2642C77.644 62.2642 76.1873 63.8601 76.1873 66.2166C76.1873 68.6378 77.6241 70.1491 79.9757 70.1491ZM78.2804 65.4112C78.3251 64.5412 78.9863 63.8452 79.926 63.8452C80.8457 63.8452 81.4821 64.5014 81.487 65.4112H78.2804ZM86.9806 59.8182H84.8627V70H86.9806V59.8182ZM91.9572 70H94.1099V66.3906H95.6809L97.6099 70H99.9863L97.8237 66.0426C98.9821 65.5455 99.6234 64.5362 99.6234 63.1442C99.6234 61.1207 98.286 59.8182 95.9743 59.8182H91.9572V70ZM94.1099 64.6605V61.5781H95.5616C96.8045 61.5781 97.4061 62.13 97.4061 63.1442C97.4061 64.1534 96.8045 64.6605 95.5716 64.6605H94.1099ZM104.432 70.1491C106.749 70.1491 108.191 68.5632 108.191 66.2116C108.191 63.8452 106.749 62.2642 104.432 62.2642C102.115 62.2642 100.674 63.8452 100.674 66.2116C100.674 68.5632 102.115 70.1491 104.432 70.1491ZM104.442 68.5085C103.373 68.5085 102.826 67.5291 102.826 66.1967C102.826 64.8643 103.373 63.88 104.442 63.88C105.491 63.88 106.038 64.8643 106.038 66.1967C106.038 67.5291 105.491 68.5085 104.442 68.5085ZM114.465 66.7486C114.47 67.7727 113.769 68.3097 113.008 68.3097C112.208 68.3097 111.691 67.7479 111.686 66.848V62.3636H109.568V67.2259C109.573 69.0107 110.617 70.0994 112.153 70.0994C113.301 70.0994 114.127 69.5078 114.47 68.6129H114.549V70H116.583V62.3636H114.465V66.7486ZM124.631 64.5412C124.442 63.1342 123.308 62.2642 121.379 62.2642C119.425 62.2642 118.138 63.169 118.143 64.6406C118.138 65.7841 118.858 66.5249 120.35 66.8232L121.672 67.0866C122.339 67.2209 122.642 67.4645 122.652 67.8473C122.642 68.2997 122.15 68.6229 121.409 68.6229C120.653 68.6229 120.151 68.2997 120.022 67.6783L117.939 67.7876C118.138 69.2493 119.381 70.1491 121.404 70.1491C123.383 70.1491 124.8 69.1399 124.805 67.6335C124.8 66.5298 124.079 65.8686 122.597 65.5653L121.215 65.2869C120.504 65.1328 120.241 64.8892 120.246 64.5213C120.241 64.0639 120.758 63.7656 121.414 63.7656C122.15 63.7656 122.587 64.1683 122.692 64.6605L124.631 64.5412ZM132.492 64.5412C132.303 63.1342 131.169 62.2642 129.24 62.2642C127.287 62.2642 125.999 63.169 126.004 64.6406C125.999 65.7841 126.72 66.5249 128.211 66.8232L129.534 67.0866C130.2 67.2209 130.503 67.4645 130.513 67.8473C130.503 68.2997 130.011 68.6229 129.27 68.6229C128.515 68.6229 128.012 68.2997 127.883 67.6783L125.8 67.7876C125.999 69.2493 127.242 70.1491 129.265 70.1491C131.244 70.1491 132.661 69.1399 132.666 67.6335C132.661 66.5298 131.94 65.8686 130.458 65.5653L129.076 65.2869C128.365 65.1328 128.102 64.8892 128.107 64.5213C128.102 64.0639 128.619 63.7656 129.275 63.7656C130.011 63.7656 130.449 64.1683 130.553 64.6605L132.492 64.5412ZM137.48 70.1491C139.369 70.1491 140.642 69.2294 140.94 67.8125L138.981 67.6832C138.767 68.2649 138.22 68.5682 137.514 68.5682C136.455 68.5682 135.784 67.8672 135.784 66.7287V66.7237H140.985V66.142C140.985 63.5469 139.414 62.2642 137.395 62.2642C135.148 62.2642 133.691 63.8601 133.691 66.2166C133.691 68.6378 135.128 70.1491 137.48 70.1491ZM135.784 65.4112C135.829 64.5412 136.49 63.8452 137.43 63.8452C138.35 63.8452 138.986 64.5014 138.991 65.4112H135.784ZM144.485 59.8182H142.367V70H144.485V59.8182Z" fill="#202020"/>
</svg>
