<svg width="540" height="401" viewBox="0 0 540 401" fill="none" xmlns="http://www.w3.org/2000/svg">
<rect width="540" height="401" fill="#F4F1ED"/>
<rect width="270" height="401" fill="#0E2D22"/>
<rect x="318" y="279" width="88" height="24" rx="2" fill="#0E2D22"/>
<rect x="318" y="211" width="174" height="8" rx="2" fill="#0E2D22"/>
<rect x="318" y="223" width="174" height="8" rx="2" fill="#0E2D22"/>
<rect x="318" y="235" width="174" height="8" rx="2" fill="#0E2D22"/>
<rect x="318" y="247" width="64" height="8" rx="2" fill="#0E2D22"/>
<rect x="318" y="139" width="160" height="24" rx="2" fill="#0E2D22"/>
<rect x="226" y="54" width="88" height="24" rx="2" fill="white" stroke="#D1DBD6"/>
<rect x="416" y="60" width="48" height="12" rx="2" fill="#0E2D22"/>
<rect x="472" y="60" width="32" height="12" rx="2" fill="#0E2D22"/>
<rect x="512" y="60" width="12" height="12" rx="6" fill="#0E2D22"/>
<rect x="318" y="171" width="120" height="24" rx="2" fill="#0E2D22"/>
<path fill-rule="evenodd" clip-rule="evenodd" d="M16 74.3429L17.2885 73.5091V57.5665L16.1263 57.0106V56.7074L19.3098 56V73.5091L20.5731 74.3429V74.6208H16V74.3429ZM59.0524 73.5091L57.7639 74.3429V74.6208H62.3369V74.3429L61.0736 73.5091V56L57.8902 56.7074V57.0106L59.0524 57.5665V73.5091ZM35.9343 62.165C38.9156 62.165 40.381 64.9695 40.381 68.0772C40.381 71.1849 38.9156 73.9641 35.9343 73.9893C32.9529 73.9893 31.4875 71.1849 31.4875 68.0772C31.4875 64.9695 32.9529 62.165 35.9343 62.165ZM35.9343 61.1544C31.9928 61.1544 29.1125 64.1105 29.1125 68.0772C29.1125 72.0439 31.9928 75 35.9343 75C39.8757 75 42.756 72.0439 42.756 68.0772C42.756 64.1105 39.8757 61.1544 35.9343 61.1544ZM22.5436 66.9904L28.203 73.5089L29.6179 74.3174V74.6206H26.5608C26.0049 74.09 20.3707 67.521 20.3707 67.521L25.3986 62.5436L24.3122 61.8362V61.533H28.4052V61.8362L26.9398 62.5436L22.5436 66.9904ZM53.0141 69.5174V67.6224C48.0873 68.0772 46.5714 69.1636 46.5714 71.3365C46.5714 72.9787 47.7083 73.9388 49.1232 73.9388C51.4477 73.9135 53.0141 72.1197 53.0141 69.5174ZM44.4238 71.2859C44.4238 68.4057 47.4809 67.0161 53.0141 66.6876V65.1716C53.0141 63.1251 51.8014 62.165 50.1338 62.165C48.6684 62.165 47.5315 62.9988 47.1525 64.3884C46.9503 65.1716 46.4956 65.5506 45.9902 65.5506C45.4597 65.5506 45.0554 65.0958 45.0554 64.5148C45.0554 64.1863 45.106 63.9589 45.3586 63.5041C46.0408 62.1903 48.0368 61.1544 50.1338 61.1544C52.812 61.1544 55.0606 62.0134 55.0606 65.7781V73.4841L56.3492 74.3178V74.621H53.2162V72.3218C52.3572 73.9893 50.8665 74.9747 48.8453 74.9747C46.5461 75 44.4238 73.863 44.4238 71.2859ZM72.3172 67.6224V69.5174C72.3172 72.1197 70.776 73.9135 68.4263 73.9388C67.0114 73.9388 65.8744 72.9787 65.8744 71.3365C65.8744 69.1636 67.3904 68.0772 72.3172 67.6224ZM72.3425 66.6876C66.8092 67.0161 63.7521 68.4057 63.7521 71.2859C63.7521 73.863 65.8492 75 68.1736 74.9747C70.1948 74.9747 71.6855 73.9893 72.5446 72.3218V74.621H75.6775V74.3178L74.3889 73.4841V65.7781C74.3889 62.0134 72.1403 61.1544 69.4621 61.1544C67.3651 61.1544 65.3691 62.1903 64.687 63.5041C64.4343 63.9589 64.3837 64.1863 64.3837 64.5148C64.3837 65.0958 64.788 65.5506 65.3186 65.5506C65.8239 65.5506 66.2787 65.1716 66.4808 64.3884C66.8598 62.9988 67.9967 62.165 69.4621 62.165C71.1297 62.165 72.3425 63.1251 72.3425 65.1716V66.6876Z" fill="#F4F1ED"/>
<circle cx="24" cy="24" r="8" fill="#FF6058"/>
<circle cx="48" cy="24" r="8" fill="#FFC12E"/>
<circle cx="72" cy="24" r="8" fill="#28CE41"/>
</svg>
