<svg width="540" height="401" viewBox="0 0 540 401" fill="none" xmlns="http://www.w3.org/2000/svg">
<rect width="540" height="401" fill="#FFF4D5"/>
<rect x="270" width="270" height="401" fill="white"/>
<circle cx="24" cy="24" r="8" fill="#FF6058"/>
<circle cx="48" cy="24" r="8" fill="#FFC12E"/>
<circle cx="72" cy="24" r="8" fill="#28CE41"/>
<rect x="492" y="107" width="32" height="8" rx="2" fill="#706F6C"/>
<rect x="294" y="133" width="32" height="4" rx="2" fill="#706F6C"/>
<rect x="16" y="149" width="160" height="8" rx="2" fill="#1B1B18"/>
<rect x="16" y="161" width="88" height="8" rx="2" fill="#1B1B18"/>
<rect x="96" y="361" width="48" height="8" rx="2" fill="#1B1B18"/>
<rect x="160" y="361" width="48" height="8" rx="2" fill="#1B1B18"/>
<rect x="286" y="105" width="48" height="12" rx="2" fill="#1B1B18"/>
<rect x="294" y="139" width="64" height="8" rx="2" fill="#1B1B18"/>
<rect x="294" y="155" width="48" height="8" rx="2" fill="#C8C7C1"/>
<rect x="405" y="133" width="32" height="4" rx="2" fill="#706F6C"/>
<rect x="405" y="139" width="64" height="8" rx="2" fill="#1B1B18"/>
<rect x="286" y="125" width="238" height="46" rx="2" stroke="#E3E3E0"/>
<rect x="294" y="183" width="32" height="4" rx="2" fill="#706F6C"/>
<rect x="294" y="189" width="48" height="8" rx="2" fill="#1B1B18"/>
<rect x="294" y="205" width="48" height="8" rx="2" fill="#FFE3A2"/>
<rect x="350" y="205" width="48" height="8" rx="2" fill="#C8C7C1"/>
<rect x="405" y="183" width="32" height="4" rx="2" fill="#706F6C"/>
<rect x="405" y="189" width="88" height="8" rx="2" fill="#1B1B18"/>
<rect x="286" y="175" width="238" height="46" rx="2" stroke="#E3E3E0"/>
<rect x="294" y="233" width="32" height="4" rx="2" fill="#706F6C"/>
<rect x="294" y="239" width="48" height="8" rx="2" fill="#1B1B18"/>
<rect x="294" y="255" width="48" height="8" rx="2" fill="#FFE3A2"/>
<rect x="350" y="255" width="48" height="8" rx="2" fill="#C8C7C1"/>
<rect x="405" y="233" width="32" height="4" rx="2" fill="#706F6C"/>
<rect x="405" y="239" width="64" height="8" rx="2" fill="#1B1B18"/>
<rect x="286" y="225" width="238" height="46" rx="2" stroke="#E3E3E0"/>
<rect x="294" y="283" width="32" height="4" rx="2" fill="#706F6C"/>
<rect x="294" y="289" width="64" height="8" rx="2" fill="#1B1B18"/>
<rect x="294" y="305" width="48" height="8" rx="2" fill="#C8C7C1"/>
<rect x="405" y="283" width="32" height="4" rx="2" fill="#706F6C"/>
<rect x="405" y="289" width="88" height="8" rx="2" fill="#1B1B18"/>
<rect x="286" y="275" width="238" height="46" rx="2" stroke="#E3E3E0"/>
<rect x="294" y="333" width="32" height="4" rx="2" fill="#706F6C"/>
<rect x="294" y="339" width="32" height="8" rx="2" fill="#1B1B18"/>
<rect x="294" y="355" width="48" height="8" rx="2" fill="#FFE3A2"/>
<rect x="350" y="355" width="48" height="8" rx="2" fill="#C8C7C1"/>
<rect x="405" y="333" width="32" height="4" rx="2" fill="#706F6C"/>
<rect x="405" y="339" width="88" height="8" rx="2" fill="#1B1B18"/>
<rect x="286" y="325" width="238" height="46" rx="2" stroke="#E3E3E0"/>
<rect x="294" y="383" width="32" height="4" rx="2" fill="#706F6C"/>
<rect x="294" y="389" width="64" height="8" rx="2" fill="#1B1B18"/>
<rect x="405" y="383" width="32" height="4" rx="2" fill="#706F6C"/>
<rect x="405" y="389" width="88" height="8" rx="2" fill="#1B1B18"/>
<path d="M285.5 377C285.5 375.619 286.619 374.5 288 374.5H522C523.381 374.5 524.5 375.619 524.5 377H523.5C523.5 376.172 522.828 375.5 522 375.5H288C287.172 375.5 286.5 376.172 286.5 377H285.5ZM524 401H286H524ZM285.5 401V377C285.5 375.619 286.619 374.5 288 374.5V375.5C287.172 375.5 286.5 376.172 286.5 377V401H285.5ZM522 374.5C523.381 374.5 524.5 375.619 524.5 377V401H523.5V377C523.5 376.172 522.828 375.5 522 375.5V374.5Z" fill="#E3E3E0"/>
<rect x="476" y="59" width="48" height="12" rx="2" fill="#1B1B18"/>
<rect x="416" y="59" width="48" height="12" rx="2" fill="#1B1B18"/>
<rect x="356" y="59" width="48" height="12" rx="2" fill="#1B1B18"/>
<rect x="16" y="105" width="120" height="32" rx="2" fill="#1B1B18"/>
<rect x="16" y="353" width="64" height="24" rx="2" fill="#1B1B18"/>
<path d="M37.4972 61.593V59.8182H45.8594V61.593H42.7422V70H40.6143V61.593H37.4972ZM47.1967 70V62.3636H49.3146V70H47.1967ZM48.2607 61.3793C47.9458 61.3793 47.6757 61.2749 47.4503 61.0661C47.2282 60.8539 47.1172 60.6004 47.1172 60.3054C47.1172 60.0137 47.2282 59.7635 47.4503 59.5547C47.6757 59.3426 47.9458 59.2365 48.2607 59.2365C48.5755 59.2365 48.844 59.3426 49.0661 59.5547C49.2914 59.7635 49.4041 60.0137 49.4041 60.3054C49.4041 60.6004 49.2914 60.8539 49.0661 61.0661C48.844 61.2749 48.5755 61.3793 48.2607 61.3793ZM53.1291 65.5852V70H51.0112V62.3636H53.0297V63.7109H53.1191C53.2882 63.2668 53.5716 62.9155 53.9693 62.657C54.367 62.3951 54.8493 62.2642 55.416 62.2642C55.9463 62.2642 56.4087 62.3802 56.8031 62.6122C57.1975 62.8442 57.5041 63.1757 57.7228 63.6065C57.9416 64.0341 58.051 64.5445 58.051 65.1378V70H55.9331V65.5156C55.9364 65.0483 55.8171 64.6837 55.5751 64.4219C55.3332 64.1567 55.0001 64.0241 54.5758 64.0241C54.2908 64.0241 54.0389 64.0855 53.8201 64.2081C53.6047 64.3307 53.4357 64.5097 53.313 64.745C53.1937 64.977 53.1324 65.2571 53.1291 65.5852ZM60.7543 72.8636C60.4858 72.8636 60.2339 72.8421 59.9986 72.799C59.7666 72.7592 59.5743 72.7079 59.4219 72.6449L59.8991 71.0639C60.1477 71.1402 60.3714 71.1816 60.5703 71.1882C60.7725 71.1948 60.9465 71.1484 61.0923 71.049C61.2415 70.9496 61.3625 70.7805 61.4553 70.5419L61.5795 70.2188L58.8402 62.3636H61.0675L62.6484 67.9716H62.728L64.3239 62.3636H66.5661L63.598 70.8253C63.4555 71.2363 63.2616 71.5942 63.0163 71.8991C62.7744 72.2074 62.4678 72.4444 62.0966 72.6101C61.7254 72.7791 61.2779 72.8636 60.7543 72.8636ZM67.6896 70V59.8182H71.7067C72.4789 59.8182 73.1368 59.9657 73.6804 60.2607C74.224 60.5523 74.6383 60.9583 74.9233 61.4787C75.2116 61.9957 75.3558 62.5923 75.3558 63.2685C75.3558 63.9446 75.21 64.5412 74.9183 65.0582C74.6267 65.5753 74.2041 65.978 73.6506 66.2663C73.1004 66.5547 72.4342 66.6989 71.652 66.6989H69.0916V64.9737H71.304C71.7183 64.9737 72.0597 64.9025 72.3281 64.7599C72.5999 64.6141 72.8021 64.4136 72.9347 64.1584C73.0705 63.8999 73.1385 63.6032 73.1385 63.2685C73.1385 62.9304 73.0705 62.6354 72.9347 62.3835C72.8021 62.1283 72.5999 61.9311 72.3281 61.7919C72.0563 61.6494 71.7116 61.5781 71.294 61.5781H69.8423V70H67.6896ZM80.0714 70.1491C79.2859 70.1491 78.6097 69.9901 78.043 69.6719C77.4795 69.3504 77.0453 68.8963 76.7404 68.3097C76.4355 67.7197 76.283 67.022 76.283 66.2166C76.283 65.4311 76.4355 64.7417 76.7404 64.1484C77.0453 63.5552 77.4746 63.0928 78.0281 62.7614C78.5849 62.4299 79.2378 62.2642 79.9869 62.2642C80.4906 62.2642 80.9596 62.3454 81.3938 62.5078C81.8313 62.6669 82.2125 62.9072 82.5373 63.2287C82.8654 63.5502 83.1206 63.9545 83.3029 64.4418C83.4852 64.9257 83.5763 65.4924 83.5763 66.142V66.7237H77.1282V65.4112H81.5827C81.5827 65.1063 81.5165 64.8362 81.3839 64.6009C81.2513 64.3655 81.0674 64.1816 80.832 64.049C80.6 63.9131 80.3299 63.8452 80.0217 63.8452C79.7002 63.8452 79.4151 63.9197 79.1665 64.0689C78.9213 64.2147 78.729 64.4119 78.5898 64.6605C78.4506 64.9058 78.3794 65.1792 78.3761 65.4808V66.7287C78.3761 67.1065 78.4457 67.433 78.5849 67.7081C78.7274 67.9832 78.9279 68.1953 79.1864 68.3445C79.445 68.4936 79.7515 68.5682 80.1062 68.5682C80.3415 68.5682 80.5569 68.535 80.7525 68.4688C80.948 68.4025 81.1154 68.303 81.2546 68.1705C81.3938 68.0379 81.4999 67.8755 81.5728 67.6832L83.5316 67.8125C83.4322 68.2831 83.2283 68.6941 82.9201 69.0455C82.6152 69.3935 82.2208 69.6652 81.7369 69.8608C81.2563 70.053 80.7011 70.1491 80.0714 70.1491ZM84.9585 70V62.3636H87.0117V63.696H87.0913C87.2305 63.2221 87.4641 62.8641 87.7923 62.6222C88.1204 62.3769 88.4982 62.2543 88.9258 62.2543C89.0318 62.2543 89.1462 62.2609 89.2688 62.2741C89.3915 62.2874 89.4992 62.3056 89.592 62.3288V64.2081C89.4925 64.1783 89.355 64.1518 89.1793 64.1286C89.0037 64.1054 88.8429 64.0938 88.6971 64.0938C88.3855 64.0938 88.1071 64.1617 87.8619 64.2976C87.6199 64.4302 87.4277 64.6158 87.2852 64.8544C87.146 65.093 87.0763 65.3681 87.0763 65.6797V70H84.9585ZM97.0407 64.5412L95.1017 64.6605C95.0686 64.4948 94.9973 64.3456 94.888 64.2131C94.7786 64.0772 94.6344 63.9695 94.4554 63.8899C94.2798 63.8071 94.0693 63.7656 93.824 63.7656C93.4959 63.7656 93.2192 63.8352 92.9938 63.9744C92.7684 64.1103 92.6557 64.2926 92.6557 64.5213C92.6557 64.7036 92.7286 64.8577 92.8745 64.9837C93.0203 65.1096 93.2705 65.2107 93.6252 65.2869L95.0073 65.5653C95.7497 65.7178 96.3032 65.9631 96.6678 66.3011C97.0324 66.6392 97.2147 67.0833 97.2147 67.6335C97.2147 68.134 97.0672 68.5732 96.7722 68.951C96.4805 69.3288 96.0795 69.6238 95.5691 69.8359C95.062 70.0447 94.477 70.1491 93.8141 70.1491C92.8032 70.1491 91.9978 69.9387 91.3979 69.5178C90.8013 69.0935 90.4516 68.5168 90.3489 67.7876L92.432 67.6783C92.495 67.9865 92.6474 68.2218 92.8894 68.3842C93.1313 68.5433 93.4412 68.6229 93.8191 68.6229C94.1903 68.6229 94.4886 68.5516 94.714 68.4091C94.9426 68.2633 95.0587 68.076 95.062 67.8473C95.0587 67.6551 94.9775 67.4976 94.8184 67.375C94.6593 67.2491 94.414 67.1529 94.0826 67.0866L92.7601 66.8232C92.0144 66.674 91.4592 66.4155 91.0946 66.0476C90.7334 65.6797 90.5527 65.2107 90.5527 64.6406C90.5527 64.1501 90.6853 63.7275 90.9505 63.3729C91.2189 63.0182 91.5951 62.7448 92.079 62.5526C92.5662 62.3603 93.1363 62.2642 93.7892 62.2642C94.7537 62.2642 95.5127 62.468 96.0662 62.8757C96.623 63.2834 96.9479 63.8385 97.0407 64.5412ZM98.5483 70V62.3636H100.666V70H98.5483ZM99.6122 61.3793C99.2973 61.3793 99.0272 61.2749 98.8018 61.0661C98.5798 60.8539 98.4688 60.6004 98.4688 60.3054C98.4688 60.0137 98.5798 59.7635 98.8018 59.5547C99.0272 59.3426 99.2973 59.2365 99.6122 59.2365C99.9271 59.2365 100.196 59.3426 100.418 59.5547C100.643 59.7635 100.756 60.0137 100.756 60.3054C100.756 60.6004 100.643 60.8539 100.418 61.0661C100.196 61.2749 99.9271 61.3793 99.6122 61.3793ZM102.363 70V62.3636H104.381V63.7109H104.471C104.63 63.2635 104.895 62.9105 105.266 62.652C105.637 62.3935 106.081 62.2642 106.599 62.2642C107.122 62.2642 107.568 62.3951 107.936 62.657C108.304 62.9155 108.549 63.2668 108.672 63.7109H108.751C108.907 63.2734 109.189 62.9238 109.596 62.6619C110.007 62.3968 110.493 62.2642 111.053 62.2642C111.766 62.2642 112.344 62.4912 112.788 62.9453C113.236 63.3961 113.459 64.0357 113.459 64.8643V70H111.346V65.282C111.346 64.8577 111.234 64.5395 111.008 64.3274C110.783 64.1153 110.501 64.0092 110.163 64.0092C109.779 64.0092 109.479 64.1319 109.263 64.3771C109.048 64.6191 108.94 64.9389 108.94 65.3366V70H106.887V65.2372C106.887 64.8627 106.779 64.5644 106.564 64.3423C106.352 64.1203 106.072 64.0092 105.724 64.0092C105.488 64.0092 105.276 64.0689 105.087 64.1882C104.902 64.3042 104.754 64.4683 104.645 64.6804C104.535 64.8892 104.481 65.1345 104.481 65.4162V70H102.363ZM115.132 70V62.3636H117.151V63.7109H117.24C117.399 63.2635 117.664 62.9105 118.036 62.652C118.407 62.3935 118.851 62.2642 119.368 62.2642C119.892 62.2642 120.338 62.3951 120.705 62.657C121.073 62.9155 121.319 63.2668 121.441 63.7109H121.521C121.677 63.2734 121.958 62.9238 122.366 62.6619C122.777 62.3968 123.262 62.2642 123.823 62.2642C124.535 62.2642 125.114 62.4912 125.558 62.9453C126.005 63.3961 126.229 64.0357 126.229 64.8643V70H124.116V65.282C124.116 64.8577 124.003 64.5395 123.778 64.3274C123.552 64.1153 123.271 64.0092 122.933 64.0092C122.548 64.0092 122.248 64.1319 122.033 64.3771C121.817 64.6191 121.71 64.9389 121.71 65.3366V70H119.656V65.2372C119.656 64.8627 119.549 64.5644 119.333 64.3423C119.121 64.1203 118.841 64.0092 118.493 64.0092C118.258 64.0092 118.046 64.0689 117.857 64.1882C117.671 64.3042 117.524 64.4683 117.414 64.6804C117.305 64.8892 117.25 65.1345 117.25 65.4162V70H115.132ZM131.352 70.1491C130.58 70.1491 129.912 69.9851 129.349 69.657C128.788 69.3255 128.356 68.8648 128.051 68.2749C127.746 67.6816 127.594 66.9938 127.594 66.2116C127.594 65.4228 127.746 64.7334 128.051 64.1435C128.356 63.5502 128.788 63.0895 129.349 62.7614C129.912 62.4299 130.58 62.2642 131.352 62.2642C132.124 62.2642 132.791 62.4299 133.351 62.7614C133.914 63.0895 134.348 63.5502 134.653 64.1435C134.958 64.7334 135.111 65.4228 135.111 66.2116C135.111 66.9938 134.958 67.6816 134.653 68.2749C134.348 68.8648 133.914 69.3255 133.351 69.657C132.791 69.9851 132.124 70.1491 131.352 70.1491ZM131.362 68.5085C131.713 68.5085 132.007 68.4091 132.242 68.2102C132.477 68.008 132.655 67.733 132.774 67.3849C132.897 67.0369 132.958 66.6409 132.958 66.1967C132.958 65.7526 132.897 65.3565 132.774 65.0085C132.655 64.6605 132.477 64.3854 132.242 64.1832C132.007 63.9811 131.713 63.88 131.362 63.88C131.007 63.88 130.709 63.9811 130.467 64.1832C130.229 64.3854 130.048 64.6605 129.925 65.0085C129.806 65.3565 129.746 65.7526 129.746 66.1967C129.746 66.6409 129.806 67.0369 129.925 67.3849C130.048 67.733 130.229 68.008 130.467 68.2102C130.709 68.4091 131.007 68.5085 131.362 68.5085ZM138.606 65.5852V70H136.488V62.3636H138.506V63.7109H138.596C138.765 63.2668 139.048 62.9155 139.446 62.657C139.844 62.3951 140.326 62.2642 140.893 62.2642C141.423 62.2642 141.885 62.3802 142.28 62.6122C142.674 62.8442 142.981 63.1757 143.199 63.6065C143.418 64.0341 143.528 64.5445 143.528 65.1378V70H141.41V65.5156C141.413 65.0483 141.294 64.6837 141.052 64.4219C140.81 64.1567 140.477 64.0241 140.052 64.0241C139.767 64.0241 139.515 64.0855 139.297 64.2081C139.081 64.3307 138.912 64.5097 138.79 64.745C138.67 64.977 138.609 65.2571 138.606 65.5852Z" fill="#202020"/>
<path d="M32.1797 62.0421C30.4694 59.1815 26.6401 59.8475 26.6401 59.8475L24.506 61.0886L22.3719 59.8475C22.3719 59.8475 18.5426 59.1815 16.8323 62.0421C15.122 64.9028 15.9847 70.5029 20.48 71.8348C21.7967 72.2284 23.2195 72.4857 24.506 72.4251C25.7925 72.4857 27.2153 72.2284 28.5321 71.8348C33.0425 70.5029 33.89 64.9028 32.1797 62.0421Z" fill="#FFA01C"/>
<path d="M27.6543 71.6981C26.3678 71.7586 24.945 71.5013 23.6283 71.1078C19.1179 69.7759 18.2703 64.1757 19.9806 61.3151C20.4044 60.6188 20.9493 60.1345 21.5244 59.7864C20.2984 59.7561 18.0281 60.0134 16.8173 62.0416C15.107 64.9022 15.9697 70.5024 20.4649 71.8343C21.7817 72.2278 23.2045 72.4851 24.491 72.4246C25.7775 72.4851 27.2002 72.2278 28.517 71.8343C28.6987 71.7738 28.8652 71.7132 29.0468 71.6527C28.5776 71.6981 28.1084 71.7284 27.6543 71.6981Z" fill="#AD5700" fill-opacity="0.2"/>
<path d="M26.1709 58.9676C26.3526 58.5136 25.9893 57.9384 25.2628 57.6962C24.8541 57.56 24.6422 57.3027 24.5363 57.1059C24.5212 57.0605 24.506 57.0303 24.4909 57C24.4758 57.0303 24.4606 57.0757 24.4455 57.1059C24.3395 57.3027 24.1276 57.56 23.719 57.6962C22.9925 57.9384 22.6292 58.5136 22.8108 58.9676C22.387 58.2714 19.5264 57.7265 18.7091 60.0877C19.1934 59.8758 19.7081 60.0877 20.2378 60.4509C20.7524 60.8142 21.8573 61.238 22.5535 60.7536C21.7665 61.238 21.7665 62.4337 22.7352 62.7969C23.4163 63.0542 23.9914 63.3721 24.3547 63.6899C24.4152 63.7505 24.4758 63.7959 24.5212 63.8413C24.5666 63.7959 24.6271 63.7353 24.6877 63.6899C25.0509 63.3721 25.6261 63.0542 26.3072 62.7969C27.2758 62.4337 27.2758 61.238 26.4888 60.7536C27.185 61.238 28.2899 60.8142 28.8045 60.4509C29.3191 60.0877 29.8337 59.8758 30.3332 60.0877C29.5159 57.7114 26.6553 58.2563 26.2315 58.9676H26.1709Z" fill="#65973B"/>
<path d="M25.5656 60.0727C25.5656 60.4662 25.0813 60.7841 24.5061 60.7841C23.9159 60.7841 23.4467 60.4662 23.4467 60.0727C23.4467 59.6792 23.931 59.3613 24.5061 59.3613C25.0964 59.3613 25.5656 59.6792 25.5656 60.0727Z" fill="#BDDD9E"/>
<path d="M25.2023 60.0717C25.2023 60.329 24.8844 60.5409 24.5061 60.5409C24.1125 60.5409 23.8098 60.329 23.8098 60.0717C23.8098 59.8144 24.1277 59.6025 24.5061 59.6025C24.8996 59.6025 25.2023 59.8144 25.2023 60.0717Z" fill="#65973B"/>
<path d="M31.181 62.2821C31.181 62.9935 30.5151 63.5838 29.6826 63.5838C28.8502 63.5838 28.1842 63.0086 28.1842 62.2821C28.1842 61.5708 28.8502 60.9805 29.6826 60.9805C30.5151 60.9805 31.181 61.5556 31.181 62.2821Z" fill="white" fill-opacity="0.14902"/>
<path d="M31.7106 63.9643C31.7106 64.1762 31.5441 64.3427 31.3322 64.3427C31.1203 64.3427 30.9539 64.1762 30.9539 63.9643C30.9539 63.7524 31.1203 63.5859 31.3322 63.5859C31.5441 63.5859 31.7106 63.7524 31.7106 63.9643Z" fill="white" fill-opacity="0.14902"/>
</svg>
