<svg width="540" height="401" viewBox="0 0 540 401" fill="none" xmlns="http://www.w3.org/2000/svg">
<rect width="540" height="401" fill="#0E1112"/>
<rect x="190" y="51" width="160" height="24" rx="2" fill="#303030"/>
<rect x="460" y="54" width="64" height="16" rx="2" fill="#959595"/>
<rect x="16" y="107" width="508" height="252" rx="8" fill="black"/>
<rect x="328" y="123" width="180" height="220" rx="8" fill="#1D1D1D"/>
<rect x="344" y="163" width="148" height="112" rx="8" fill="black" stroke="#303030"/>
<rect x="460" y="139" width="32" height="8" rx="2" fill="#959595"/>
<rect x="32" y="123" width="88" height="12" rx="2" fill="#EEEEEE"/>
<rect x="288" y="331" width="24" height="12" rx="2" fill="#4E4E4E"/>
<rect x="256" y="331" width="24" height="12" rx="2" fill="#4E4E4E"/>
<rect x="224" y="331" width="24" height="12" rx="2" fill="#4E4E4E"/>
<rect x="32" y="139" width="120" height="8" rx="2" fill="#A8A8A8"/>
<rect x="32" y="151" width="64" height="4" rx="2" fill="#42FF00"/>
<rect x="352" y="185" width="48" height="12" rx="2" fill="#EEEEEE"/>
<rect x="420" y="183" width="64" height="16" rx="2" fill="#303030"/>
<rect x="344" y="218" width="148" height="1" fill="#303030"/>
<rect x="410" y="210.5" width="16" height="16" rx="8" fill="#64CECD"/>
<rect x="352" y="171" width="32" height="4" rx="2" fill="#A8A8A8"/>
<rect x="436" y="171" width="48" height="4" rx="2" fill="#A8A8A8"/>
<rect x="352" y="249" width="48" height="12" rx="2" fill="#EEEEEE"/>
<rect x="374" y="291" width="88" height="4" rx="2" fill="#A8A8A8"/>
<rect x="420" y="247" width="64" height="16" rx="2" fill="#303030"/>
<rect x="344" y="303" width="148" height="24" rx="2" fill="#64CECD"/>
<rect x="352" y="235" width="64" height="4" rx="2" fill="#A8A8A8"/>
<rect x="344" y="139" width="12" height="12" rx="2" fill="#959595"/>
<circle cx="24" cy="24" r="8" fill="#FF6058"/>
<circle cx="48" cy="24" r="8" fill="#FFC12E"/>
<circle cx="72" cy="24" r="8" fill="#28CE41"/>
<path d="M31.66 56H19.3511C17.5003 56 16 57.5003 16 59.3511V59.3511C16 61.2019 17.5003 62.7022 19.3511 62.7022H31.66C33.5107 62.7022 35.0111 61.2019 35.0111 59.3511C35.0111 57.5003 33.5107 56 31.66 56Z" fill="#EEEEEE"/>
<path d="M31.66 63.7983H19.3511C17.5003 63.7983 16 65.2987 16 67.1494V67.1494C16 69.0002 17.5003 70.5005 19.3511 70.5005H31.66C33.5107 70.5005 35.0111 69.0002 35.0111 67.1494C35.0111 65.2987 33.5107 63.7983 31.66 63.7983Z" fill="#64CECD"/>
<path d="M47.0424 58.9615H51.0307V57.042H40.8573V58.9615H44.8669V69.7106H47.0424V58.9615Z" fill="#EEEEEE"/>
<path d="M51.667 68.9854C52.4774 69.5399 53.6505 69.9239 55.0368 69.9239C57.4895 69.9239 59.4943 68.7722 59.4943 66.2342C59.4943 64.08 58.4278 63.035 55.9539 62.2885C54.3542 61.7766 53.6291 61.3501 53.6291 60.3264C53.6291 59.3453 54.3756 58.6841 55.5913 58.6841C56.807 58.6841 57.7667 59.1533 58.7691 59.9638V57.7884C57.916 57.2125 56.8923 56.8286 55.5273 56.8286C53.3519 56.8286 51.4963 58.0869 51.4963 60.3903C51.4963 62.5231 52.6054 63.4829 55.0368 64.2507C56.4444 64.6772 57.3615 65.1251 57.3615 66.2981C57.3615 67.5778 56.2738 68.0683 55.0154 68.0683C53.6718 68.0683 52.648 67.5138 51.667 66.7673V68.9854Z" fill="#EEEEEE"/>
<path d="M61.0591 65.3811C61.0591 68.9002 63.5118 69.924 66.391 69.924C67.9054 69.924 69.8888 69.668 71.0618 69.3481V57.042H68.8864V67.8552C68.14 67.9831 67.3721 68.0684 66.391 68.0684C64.5142 68.0684 63.2345 67.4286 63.2345 64.9972V57.042H61.0591V65.3811Z" fill="#EEEEEE"/>
<path d="M75.9128 57.042H73.6947V69.7106H75.8062V60.4331L82.3111 69.7106H84.4012V57.042H82.2898V66.4049L75.9128 57.042Z" fill="#EEEEEE"/>
<path d="M95.7348 69.7106H98.1017L93.1539 57.042H90.4879L85.5612 69.7106H87.8646L88.9736 66.7248H94.6251L95.7348 69.7106ZM91.8102 59.0895L93.9644 64.9333H89.6348L91.8102 59.0895Z" fill="#EEEEEE"/>
<path d="M107.43 69.7106L110.438 59.8999L111.973 69.7106H114.149L112.144 57.042H109.414L106.407 67.0873L103.336 57.042H100.627L98.6003 69.7106H100.755L102.29 59.8999L105.298 69.7106H107.43Z" fill="#EEEEEE"/>
<path d="M118.072 57.042H115.896V69.7106H118.072V57.042Z" fill="#EEEEEE"/>
<path d="M32 280L58.8966 260.788C59.5629 260.312 60.4519 260.29 61.1406 260.733L87.7011 277.808C87.8988 277.935 88.0726 278.096 88.2144 278.283L114.744 313.34C115.429 314.246 116.731 314.4 117.608 313.679L143.695 292.25C143.897 292.085 144.063 291.882 144.187 291.653L170.924 241.999C171.495 240.938 172.867 240.619 173.847 241.319L197.757 258.398C198.863 259.188 200.419 258.668 200.827 257.371L226.99 174.209C227.446 172.762 229.283 172.329 230.337 173.42L255.41 199.389C255.787 199.78 256.306 200 256.849 200H283.359C283.776 200 284.182 200.13 284.522 200.373L312 220" stroke="#42FF00" stroke-width="3" stroke-linecap="round" stroke-linejoin="round"/>
</svg>
