<svg width="540" height="401" viewBox="0 0 540 401" fill="none" xmlns="http://www.w3.org/2000/svg">
<rect width="540" height="401" fill="#ACA5CF"/>
<circle cx="24" cy="24" r="8" fill="#FF6058"/>
<circle cx="48" cy="24" r="8" fill="#FFC12E"/>
<circle cx="72" cy="24" r="8" fill="#28CE41"/>
<rect x="16" y="136" width="200" height="24" rx="2" fill="white"/>
<path d="M16 216H522C523.105 216 524 216.895 524 218V246C524 247.105 523.105 248 522 248H18C16.8954 248 16 247.105 16 246V216Z" fill="#F8F8FB"/>
<rect x="422" y="220" width="98" height="24" rx="2" fill="#316CE2"/>
<path d="M118 219.5H117.5V220V244V244.5H118H212C213.381 244.5 214.5 243.381 214.5 242V222C214.5 220.619 213.381 219.5 212 219.5H118Z" fill="white" stroke="#ECEDF2"/>
<path d="M117.5 220V219.5H117H22C20.6193 219.5 19.5 220.619 19.5 222V242C19.5 243.381 20.6193 244.5 22 244.5H117H117.5V244V220Z" fill="white" stroke="#ECEDF2"/>
<rect x="319.5" y="219.5" width="99" height="25" rx="2.5" fill="white" stroke="#ECEDF2"/>
<rect x="324" y="224" width="48" height="4" rx="2" fill="#6F798D"/>
<rect x="324" y="232" width="64" height="8" rx="2" fill="#316CE2"/>
<rect x="217.5" y="219.5" width="99" height="25" rx="2.5" fill="white" stroke="#ECEDF2"/>
<rect x="460" y="48" width="64" height="24" rx="2" fill="white"/>
<path d="M16 202C16 200.895 16.8954 200 18 200H70C71.1046 200 72 200.895 72 202V216H16V202Z" fill="#F8F8FB"/>
<rect x="111.5" y="226" width="12" height="12" rx="6" fill="white" stroke="#ECEDF2"/>
<rect x="114.5" y="230" width="6" height="4" rx="2" fill="#6F798D"/>
<rect x="16" y="164" width="120" height="12" rx="2" fill="white"/>
<rect x="16" y="365" width="64" height="12" rx="2" fill="white"/>
<rect x="92" y="365" width="64" height="12" rx="2" fill="white"/>
<rect x="168" y="365" width="64" height="12" rx="2" fill="white"/>
<rect x="364" y="365" width="160" height="12" rx="2" fill="white"/>
<rect x="222" y="224" width="32" height="4" rx="2" fill="#6F798D"/>
<rect x="80" y="204" width="48" height="8" rx="2" fill="white"/>
<rect x="136" y="204" width="48" height="8" rx="2" fill="white"/>
<rect x="222" y="232" width="88" height="8" rx="2" fill="#316CE2"/>
<rect x="24" y="224" width="32" height="4" rx="2" fill="#6F798D"/>
<rect x="24" y="232" width="64" height="8" rx="2" fill="#316CE2"/>
<rect x="126" y="224" width="32" height="4" rx="2" fill="#6F798D"/>
<rect x="126" y="232" width="48" height="8" rx="2" fill="#316CE2"/>
<path d="M31.904 70.4497H31.8308V67.723H31.904C32.3537 67.726 32.7972 67.6183 33.1946 67.4097C33.5921 67.2009 33.9311 66.8977 34.1812 66.5272L30.3512 57.336H33.4261L35.6338 62.6367L37.5029 57.3384L40.5154 57.3354L37.1637 66.8402C36.7726 67.9071 36.0572 68.8274 35.116 69.4741C34.1749 70.1207 33.0544 70.4618 31.9093 70.4503L31.904 70.4497ZM58.6355 65.5191C57.753 64.6022 57.2591 63.3845 57.2557 62.1172C57.2524 60.8499 57.7398 59.6297 58.6175 58.7083C59.0795 58.2511 59.6316 57.8933 60.2393 57.657C60.8469 57.4208 61.4973 57.3114 62.1496 57.3354C62.7711 57.317 63.3894 57.4299 63.9634 57.6666C64.5374 57.9033 65.0541 58.2584 65.4791 58.7083C65.9234 59.1548 66.2717 59.6861 66.5027 60.27C66.7337 60.8538 66.8428 61.4781 66.8233 62.105C66.8241 62.4692 66.7869 62.8325 66.7124 63.1892L60.1804 63.1922C60.4938 64.0405 61.2297 64.4563 62.3887 64.4563C62.7155 64.4732 63.0422 64.4207 63.3469 64.3022C63.6515 64.1838 63.9272 64.0022 64.1554 63.7696L66.3624 65.0123C65.9044 65.6299 65.2974 66.1239 64.597 66.449C63.8966 66.774 63.1252 66.9197 62.3533 66.8729C61.6739 66.9048 60.9948 66.8014 60.3563 66.5689C59.7177 66.3363 59.1326 65.9794 58.6355 65.5191ZM60.1241 61.1688H64.0792C63.986 60.7361 63.7362 60.3521 63.3769 60.0894C63.0177 59.8268 62.5738 59.7036 62.1292 59.7431C61.6771 59.6973 61.2236 59.8169 60.8542 60.0795C60.485 60.3421 60.2252 60.7296 60.1241 61.1688ZM48.2879 64.7242L50.6748 63.387C50.772 63.7156 50.9803 64.0011 51.2648 64.1953C51.5494 64.3896 51.8927 64.4807 52.2371 64.4533C52.8963 64.4533 53.2289 64.2751 53.2289 63.8937C53.2289 63.5326 52.5098 63.3157 51.63 63.0988C50.362 62.7538 48.7086 62.1413 48.7086 60.2985C48.6908 59.879 48.7751 59.4614 48.9543 59.081C49.1335 58.7005 49.4023 58.3683 49.7382 58.1124C50.4844 57.5774 51.3892 57.3042 52.3096 57.336C53.0263 57.3139 53.7359 57.4814 54.3656 57.8213C54.9953 58.1611 55.5224 58.661 55.8926 59.2696L53.5411 60.5171C53.4339 60.2817 53.2608 60.0818 53.0424 59.9409C52.8241 59.8 52.5696 59.7241 52.309 59.7223C51.7948 59.7223 51.5365 59.8851 51.5365 60.2284C51.5365 60.589 52.2557 60.7874 53.1372 61.0227C54.4047 61.2936 56.0772 61.9446 56.0586 63.9133C56.0821 64.3463 55.993 64.7781 55.8 65.1672C55.6069 65.5563 55.3163 65.8898 54.956 66.1356C54.1456 66.6482 53.1979 66.9062 52.2371 66.8759C50.3087 66.8741 48.9855 66.1517 48.2879 64.7242ZM39.9162 64.7242L42.3042 63.387C42.4013 63.7156 42.6097 64.0011 42.8942 64.1953C43.1788 64.3896 43.5222 64.4807 43.8666 64.4533C44.5258 64.4533 44.8583 64.2751 44.8583 63.8937C44.8583 63.5326 44.1392 63.3157 43.2595 63.0988C41.9951 62.7538 40.3386 62.1413 40.3386 60.2985C40.3208 59.8791 40.4049 59.4616 40.5839 59.0812C40.7628 58.7007 41.0314 58.3685 41.367 58.1124C42.1138 57.5776 43.0189 57.3044 43.9396 57.336C44.6562 57.3138 45.3658 57.4813 45.9954 57.8211C46.625 58.161 47.152 58.6609 47.5221 59.2696L45.1705 60.5171C45.0634 60.2817 44.8903 60.0817 44.672 59.9408C44.4536 59.7999 44.199 59.7241 43.9385 59.7223C43.4243 59.7223 43.166 59.8851 43.166 60.2284C43.169 60.589 43.8851 60.7874 44.7666 61.0227C46.0311 61.2936 47.7073 61.9446 47.6892 63.9133C47.7125 64.3464 47.6233 64.7781 47.4301 65.1672C47.237 65.5563 46.9463 65.8897 46.586 66.1356C45.7756 66.6482 44.8279 66.9062 43.8672 66.8759C41.9405 66.8741 40.6143 66.1517 39.9162 64.7242ZM26.1641 66.8741V53.7568H29.1539V66.8729L26.1641 66.8741ZM16 62.5375V57.3348H18.8088V62.5375C18.7977 62.8321 18.8681 63.124 19.0124 63.3817C19.1567 63.6393 19.3693 63.853 19.6274 63.9994C19.8886 64.1494 20.1851 64.2284 20.487 64.2284C20.7889 64.2284 21.0854 64.1494 21.3467 63.9994C21.6047 63.853 21.8173 63.6393 21.9616 63.3817C22.1059 63.124 22.1764 62.8321 22.1653 62.5375V57.3348H24.971V62.5375C24.9439 63.6987 24.4596 64.8032 23.6216 65.615C22.7835 66.4267 21.6584 66.8812 20.4867 66.8812C19.315 66.8812 18.1899 66.4267 17.3518 65.615C16.5138 64.8032 16.0295 63.6987 16.0024 62.5375H16ZM72.8938 61.8021L68.9387 58.7463C68.6411 58.5013 68.4524 58.1502 68.4134 57.7687C68.3742 57.3872 68.4878 57.0057 68.7296 56.7063L70.5429 54.4245C70.6088 54.3408 70.5256 54.2226 70.4327 54.2671L66.1485 56.3362C65.973 56.4226 65.7793 56.4667 65.5833 56.4648C65.3873 56.463 65.1945 56.4153 65.0207 56.3255L61.8901 54.7061C61.7412 54.6193 61.6205 54.4919 61.5423 54.3391C61.4642 54.1863 61.4319 54.0145 61.4492 53.8441C61.4666 53.6737 61.5328 53.5117 61.6402 53.3775C61.7475 53.2433 61.8915 53.1424 62.0549 53.0867L75.4006 49.0424C75.6118 48.9867 75.834 48.9859 76.0457 49.04C76.2573 49.0941 76.4513 49.2014 76.609 49.3515C76.7666 49.5016 76.8826 49.6894 76.9458 49.8969C77.0089 50.1043 77.017 50.3244 76.9695 50.5359L75.3065 60.7262C75.2571 61.0999 75.0751 61.4438 74.7931 61.6965C74.5111 61.9491 74.1476 62.094 73.7676 62.105C73.4502 62.1046 73.1423 61.9978 72.8938 61.8021Z" fill="white"/>
<path fill-rule="evenodd" clip-rule="evenodd" d="M72 212V216H76C73.7909 216 72 214.209 72 212Z" fill="#F8F8FB"/>
</svg>
