<svg width="540" height="401" viewBox="0 0 540 401" fill="none" xmlns="http://www.w3.org/2000/svg">
<rect width="540" height="401" fill="black"/>
<circle cx="24" cy="24" r="8" fill="#FF6058"/>
<circle cx="48" cy="24" r="8" fill="#FFC12E"/>
<circle cx="72" cy="24" r="8" fill="#28CE41"/>
<rect x="204" y="182" width="200" height="8" rx="2" fill="white"/>
<rect x="16" y="253" width="88" height="12" rx="2" fill="white"/>
<rect x="16" y="281" width="64" height="8" rx="2" fill="white"/>
<rect x="16" y="297" width="88" height="8" rx="2" fill="white"/>
<rect x="16" y="345" width="88" height="8" rx="2" fill="white"/>
<rect x="16" y="369" width="64" height="16" rx="8" fill="white"/>
<rect x="16" y="313" width="64" height="8" rx="2" fill="white"/>
<rect x="16" y="329" width="120" height="8" rx="2" fill="white"/>
<rect x="500" y="54" width="24" height="24" rx="12" fill="white"/>
<rect x="204" y="122" width="240" height="16" rx="2" fill="white"/>
<rect x="204" y="146" width="160" height="16" rx="2" fill="white"/>
<path d="M204 212C204 210.895 204.895 210 206 210H522C523.105 210 524 210.895 524 212V401H204V212Z" fill="#394277"/>
<path d="M17.33 60.06V66.57C17.33 68.768 18.646 70.238 21.04 70.238C23.448 70.238 24.778 68.768 24.778 66.57V60.06H23.686V66.5C23.686 68.194 22.748 69.272 21.04 69.272C19.346 69.272 18.408 68.194 18.408 66.5V60.06H17.33ZM27.4198 72.73H28.3858V68.684C28.7078 69.524 29.5338 70.168 30.6678 70.168C32.3898 70.168 33.5798 68.726 33.5798 66.5C33.5798 64.302 32.4598 62.832 30.7378 62.832C29.6318 62.832 28.7638 63.434 28.3438 64.484V63H27.4198V72.73ZM28.3718 66.64V66.332C28.3718 64.792 29.1838 63.7 30.4998 63.7C31.7878 63.7 32.5438 64.764 32.5438 66.5C32.5438 68.236 31.7458 69.3 30.4438 69.3C29.1558 69.3 28.3718 68.208 28.3718 66.64ZM37.878 70.168C39.53 70.168 40.468 69.328 40.468 68.082C40.468 67.06 39.922 66.458 38.676 66.206L37.304 65.94C36.576 65.8 36.142 65.478 36.142 64.82C36.142 64.078 36.758 63.63 37.724 63.63C38.746 63.63 39.348 64.12 39.488 64.974L40.468 64.764C40.328 63.518 39.306 62.832 37.766 62.832C36.184 62.832 35.19 63.686 35.19 64.862C35.19 65.926 35.848 66.556 37.01 66.78L38.368 67.046C39.11 67.186 39.502 67.48 39.502 68.166C39.502 68.866 38.928 69.356 37.906 69.356C36.8 69.356 36.086 68.824 35.918 67.83L34.924 67.998C35.148 69.398 36.24 70.168 37.878 70.168ZM41.4639 63.812H42.7519V68.054C42.7519 69.3 43.2139 70.126 44.5719 70.126C44.9639 70.126 45.2439 70.084 45.5379 70V69.118C45.2999 69.174 45.1039 69.202 44.8239 69.202C44.0959 69.202 43.7319 68.838 43.7319 68.012V63.812H45.5379V63H43.7319V60.732L42.7519 61.152V63H41.4639V63.812ZM49.0064 70.168C50.2104 70.168 51.1064 69.58 51.4424 68.6C51.4564 69.118 51.4984 69.622 51.5684 70H52.5904C52.4364 69.426 52.3664 68.642 52.3664 67.55V65.73C52.3664 63.7 51.5544 62.832 49.6784 62.832C48.0684 62.832 46.9764 63.742 46.8924 65.184H47.9424C47.9984 64.19 48.6424 63.644 49.6924 63.644C50.8824 63.644 51.3864 64.218 51.3864 65.66V65.772L49.8324 65.954C48.7264 66.094 48.0404 66.29 47.5364 66.584C46.9764 66.934 46.6824 67.48 46.6824 68.152C46.6824 69.356 47.6064 70.168 49.0064 70.168ZM47.7044 68.124C47.7044 67.354 48.2224 66.948 49.4124 66.78L51.4004 66.5V66.948C51.4004 68.376 50.5324 69.356 49.2304 69.356C48.2924 69.356 47.7044 68.88 47.7044 68.124ZM53.7686 63.812H55.0566V68.054C55.0566 69.3 55.5186 70.126 56.8766 70.126C57.2686 70.126 57.5486 70.084 57.8426 70V69.118C57.6046 69.174 57.4086 69.202 57.1286 69.202C56.4006 69.202 56.0366 68.838 56.0366 68.012V63.812H57.8426V63H56.0366V60.732L55.0566 61.152V63H53.7686V63.812ZM62.1228 70.168C63.5368 70.168 64.5588 69.44 64.9928 68.138L64.1668 67.802C63.8728 68.754 63.1728 69.3 62.1928 69.3C60.8348 69.3 59.9668 68.334 59.9528 66.752H65.0348V66.08C65.0348 63.952 63.9568 62.832 62.0808 62.832C60.1488 62.832 58.9728 64.246 58.9728 66.542C58.9728 68.894 60.1348 70.168 62.1228 70.168ZM59.9528 65.954C59.9808 64.512 60.7648 63.616 62.0668 63.616C63.3128 63.616 64.0408 64.386 64.0408 65.828V65.954H59.9528ZM67.1093 63V70H68.0753V65.912C68.0753 64.54 68.7613 63.672 69.8253 63.672C70.7493 63.672 71.2813 64.316 71.2813 65.45V70H72.2473V65.744C72.2473 64.456 72.9053 63.672 73.9693 63.672C74.9353 63.672 75.4393 64.316 75.4393 65.506V70H76.4193V65.422C76.4193 63.784 75.6353 62.832 74.2633 62.832C73.2693 62.832 72.5273 63.336 72.1073 64.33C71.8133 63.364 71.0993 62.832 70.0913 62.832C69.0973 62.832 68.3693 63.364 68.0193 64.358V63H67.1093ZM81.3591 70.168C82.7731 70.168 83.7951 69.44 84.2291 68.138L83.4031 67.802C83.1091 68.754 82.4091 69.3 81.4291 69.3C80.0711 69.3 79.2031 68.334 79.1891 66.752H84.2711V66.08C84.2711 63.952 83.1931 62.832 81.3171 62.832C79.3851 62.832 78.2091 64.246 78.2091 66.542C78.2091 68.894 79.3711 70.168 81.3591 70.168ZM79.1891 65.954C79.2171 64.512 80.0011 63.616 81.3031 63.616C82.5491 63.616 83.2771 64.386 83.2771 65.828V65.954H79.1891ZM86.3456 70H87.3116V66.318C87.3116 64.68 88.1096 63.672 89.3696 63.672C90.4756 63.672 91.0636 64.372 91.0636 65.73V70H92.0436V65.674C92.0436 63.798 91.2316 62.832 89.6636 62.832C88.5016 62.832 87.6896 63.406 87.2696 64.54V63H86.3456V70ZM93.335 63.812H94.623V68.054C94.623 69.3 95.085 70.126 96.443 70.126C96.835 70.126 97.115 70.084 97.409 70V69.118C97.171 69.174 96.975 69.202 96.695 69.202C95.967 69.202 95.603 68.838 95.603 68.012V63.812H97.409V63H95.603V60.732L94.623 61.152V63H93.335V63.812Z" fill="white"/>
</svg>
