<svg width="576px" height="437px" viewBox="0 0 576 437" version="1.1" xmlns="http://www.w3.org/2000/svg" xmlns:xlink="http://www.w3.org/1999/xlink">
    <defs>
        <filter x="-5.0%" y="-6.7%" width="110.0%" height="113.5%" filterUnits="objectBoundingBox" id="filter-1">
            <feOffset dx="0" dy="0" in="SourceAlpha" result="shadowOffsetOuter1"></feOffset>
            <feGaussianBlur stdDeviation="9" in="shadowOffsetOuter1" result="shadowBlurOuter1"></feGaussianBlur>
            <feColorMatrix values="0 0 0 0 0   0 0 0 0 0   0 0 0 0 0  0 0 0 0.5 0" type="matrix" in="shadowBlurOuter1" result="shadowMatrixOuter1"></feColorMatrix>
            <feMerge>
                <feMergeNode in="shadowMatrixOuter1"></feMergeNode>
                <feMergeNode in="SourceGraphic"></feMergeNode>
            </feMerge>
        </filter>
    </defs>
    <g stroke="none" stroke-width="1" fill="none" fill-rule="evenodd">
        <g filter="url(#filter-1)" transform="translate(18.000000, 18.000000)">
            <rect fill="#282C34" fill-rule="nonzero" x="0" y="0" width="540" height="401" rx="2"></rect>
            <circle fill="#FF6058" fill-rule="nonzero" cx="22.5" cy="22.5" r="7.5"></circle>
            <circle fill="#FFC12E" fill-rule="nonzero" cx="46.5" cy="22.5" r="7.5"></circle>
            <circle fill="#28CE41" fill-rule="nonzero" cx="70.5" cy="22.5" r="7.5"></circle>
            <rect fill="#D7DAE0" x="222" y="17" width="93" height="12" rx="2"></rect>
            <rect fill="#D7DAE0" x="32" y="57" width="39" height="12" rx="2"></rect>
            <rect fill="#D7DAE0" x="32" y="99" width="51" height="12" rx="2"></rect>
            <rect fill="#D7DAE0" x="32" y="78" width="66" height="12" rx="2"></rect>
            <rect fill="#D7DAE0" x="47" y="120" width="57" height="12" rx="2"></rect>
            <rect fill="#D7DAE0" x="47" y="141" width="66" height="12" rx="2"></rect>
            <rect fill="#D7DAE0" x="47" y="162" width="51" height="12" rx="2"></rect>
            <rect fill="#C678DD" x="148" y="88" width="39" height="12" rx="2"></rect>
            <rect fill="#C678DD" x="283" y="88" width="39" height="12" rx="2"></rect>
            <rect fill="#E06C75" x="202" y="88" width="66" height="12" rx="2"></rect>
            <rect fill="#E06C75" x="283" y="162" width="99" height="12" rx="2"></rect>
            <rect fill="#5C6370" x="148" y="136" width="150" height="12" rx="2"></rect>
            <rect fill="#98C379" x="337" y="88" width="81" height="12" rx="2"></rect>
            <rect fill="#98C379" x="177" y="210" width="81" height="12" rx="2"></rect>
            <rect fill="#C678DD" x="148" y="162" width="39" height="12" rx="2"></rect>
            <rect fill="#C678DD" x="145" y="330" width="39" height="12" rx="2"></rect>
            <rect fill="#C678DD" x="199" y="330" width="39" height="12" rx="2"></rect>
            <rect fill="#61AFEF" x="202" y="162" width="66" height="12" rx="2"></rect>
            <rect fill="#61AFEF" x="309" y="282" width="66" height="12" rx="2"></rect>
            <rect fill="#E06C75" x="148" y="186" width="120" height="12" rx="2"></rect>
            <rect fill="#E06C75" x="253" y="330" width="120" height="12" rx="2"></rect>
            <rect fill="#E06C75" x="273" y="210" width="60" height="12" rx="2"></rect>
            <rect fill="#E06C75" x="252" y="282" width="42" height="12" rx="2"></rect>
            <rect fill="#98C379" x="177" y="234" width="42" height="12" rx="2"></rect>
            <rect fill="#E06C75" x="234" y="234" width="120" height="12" rx="2"></rect>
            <rect fill="#98C379" x="177" y="258" width="99" height="12" rx="2"></rect>
            <rect fill="#E06C75" x="291" y="258" width="99" height="12" rx="2"></rect>
            <rect fill="#98C379" x="177" y="282" width="60" height="12" rx="2"></rect>
            <rect fill="#D7DAE0" x="47" y="183" width="51" height="12" rx="2"></rect>
            <rect fill="#D7DAE0" x="47" y="204" width="57" height="12" rx="2"></rect>
            <rect fill="#D7DAE0" x="30" y="225" width="39" height="12" rx="2"></rect>
            <rect fill="#D7DAE0" x="30" y="246" width="39" height="12" rx="2"></rect>
        </g>
    </g>
</svg>