<svg width="92px" height="39px" viewBox="0 0 92 39" version="1.1" xmlns="http://www.w3.org/2000/svg" xmlns:xlink="http://www.w3.org/1999/xlink">
    <g stroke="none" stroke-width="1" fill="none" fill-rule="evenodd">
        <g transform="translate(-2.000000, -9.000000)" fill="#262626">
            <path d="M14.7031579,47.5052632 C10.9305075,47.5052632 7.94106366,46.4273792 5.73473684,44.2715789 C3.52841002,42.1157787 2.35789541,39.0505462 2.22315789,35.0757895 L2.17263158,33.8126316 C2.17263158,29.6020842 3.27577844,26.2842227 5.48210526,23.8589474 C7.68843208,21.4336721 10.7452436,20.2210526 14.6526316,20.2210526 C18.6610727,20.2210526 21.7515681,21.4336721 23.9242105,23.8589474 C26.096853,26.2842227 27.1831579,29.5178745 27.1831579,33.56 L27.1831579,34.6210526 C27.1831579,34.9578964 27.0652643,35.2442093 26.8294737,35.48 C26.593683,35.7157907 26.2905282,35.8336842 25.92,35.8336842 L9.14526316,35.8336842 L9.14526316,36.2378947 C9.21263192,38.12422 9.72631099,39.6820991 10.6863158,40.9115789 C11.6463206,42.1410588 12.9684126,42.7557895 14.6526316,42.7557895 C16.5726412,42.7557895 18.1389413,41.9810604 19.3515789,40.4315789 C19.6547384,40.0610508 19.8905255,39.8336846 20.0589474,39.7494737 C20.2273693,39.6652627 20.5136822,39.6231579 20.9178947,39.6231579 L25.3642105,39.6231579 C25.6673699,39.6231579 25.92842,39.7073676 26.1473684,39.8757895 C26.3663169,40.0442114 26.4757895,40.2799985 26.4757895,40.5831579 C26.4757895,41.391583 25.9957943,42.3431524 25.0357895,43.4378947 C24.0757847,44.5326371 22.7031668,45.4842065 20.9178947,46.2926316 C19.1326227,47.1010567 17.0610644,47.5052632 14.7031579,47.5052632 Z M20.2105263,31.5389474 L20.2105263,31.4378947 C20.2105263,29.4505164 19.7136892,27.8589533 18.72,26.6631579 C17.7263108,25.4673624 16.3705349,24.8694737 14.6526316,24.8694737 C12.9347283,24.8694737 11.5873733,25.4673624 10.6105263,26.6631579 C9.63367933,27.8589533 9.14526316,29.4505164 9.14526316,31.4378947 L9.14526316,31.5389474 L20.2105263,31.5389474 Z M32.8042106,47 C32.4673668,47 32.1810538,46.8821064 31.9452632,46.6463158 C31.7094725,46.4105251 31.591579,46.1242122 31.591579,45.7873684 L31.591579,21.9389474 C31.591579,21.5684192 31.7094725,21.2736853 31.9452632,21.0547368 C32.1810538,20.8357884 32.4673668,20.7263158 32.8042106,20.7263158 L36.7957895,20.7263158 C37.1663177,20.7263158 37.4610516,20.8357884 37.68,21.0547368 C37.8989485,21.2736853 38.0084211,21.5684192 38.0084211,21.9389474 L38.0084211,23.6568421 C39.8273776,21.3663043 42.2694584,20.2210526 45.3347369,20.2210526 C49.0737029,20.2210526 51.6842032,21.719985 53.1663158,24.7178947 C53.9747409,23.3705196 55.1199926,22.2842147 56.6021053,21.4589474 C58.084218,20.6336801 59.684202,20.2210526 61.4021053,20.2210526 C64.1642244,20.2210526 66.4210439,21.1642011 68.1726316,23.0505263 C69.9242193,24.9368515 70.8,27.6820872 70.8,31.2863158 L70.8,45.7873684 C70.8,46.1242122 70.6905274,46.4105251 70.471579,46.6463158 C70.2526305,46.8821064 69.9578966,47 69.5873685,47 L65.3936842,47 C65.0568405,47 64.7705275,46.8821064 64.5347369,46.6463158 C64.2989462,46.4105251 64.1810527,46.1242122 64.1810527,45.7873684 L64.1810527,31.6905263 C64.1810527,29.5684104 63.7347413,28.0357942 62.8421053,27.0926316 C61.9494693,26.149469 60.7789546,25.6778947 59.3305264,25.6778947 C58.0168356,25.6778947 56.8968468,26.1578899 55.9705264,27.1178947 C55.0442059,28.0778995 54.5810527,29.6020948 54.5810527,31.6905263 L54.5810527,45.7873684 C54.5810527,46.1242122 54.4715801,46.4105251 54.2526316,46.6463158 C54.0336832,46.8821064 53.7389493,47 53.3684211,47 L49.1242106,47 C48.7873668,47 48.5010538,46.8821064 48.2652632,46.6463158 C48.0294725,46.4105251 47.911579,46.1242122 47.911579,45.7873684 L47.911579,31.6905263 C47.911579,29.6020948 47.4568467,28.0778995 46.5473685,27.1178947 C45.6378902,26.1578899 44.4757966,25.6778947 43.0610527,25.6778947 C41.7473619,25.6778947 40.6273731,26.1578899 39.7010527,27.1178947 C38.7747322,28.0778995 38.311579,29.6020948 38.311579,31.6905263 L38.311579,45.7873684 C38.311579,46.1242122 38.2021064,46.4105251 37.9831579,46.6463158 C37.7642095,46.8821064 37.4694756,47 37.0989474,47 L32.8042106,47 Z M77.4821053,47 C77.1452615,47 76.8589486,46.8821064 76.623158,46.6463158 C76.3873673,46.4105251 76.2694738,46.1242122 76.2694738,45.7873684 L76.2694738,21.9894737 C76.2694738,21.6189455 76.3873673,21.3157907 76.623158,21.08 C76.8589486,20.8442093 77.1452615,20.7263158 77.4821053,20.7263158 L81.6252632,20.7263158 C81.9957914,20.7263158 82.2989463,20.8442093 82.5347369,21.08 C82.7705276,21.3157907 82.8884211,21.6189455 82.8884211,21.9894737 L82.8884211,24.0610526 C84.5726401,21.8378836 86.997879,20.7263158 90.1642106,20.7263158 L92.2863159,20.7263158 C92.656844,20.7263158 92.9515779,20.8357884 93.1705264,21.0547368 C93.3894749,21.2736853 93.4989474,21.5684192 93.4989474,21.9389474 L93.4989474,25.6273684 C93.4989474,25.9642122 93.3894749,26.2505251 93.1705264,26.4863158 C92.9515779,26.7221064 92.656844,26.84 92.2863159,26.84 L88.2947369,26.84 C86.7115711,26.84 85.4652678,27.2947323 84.5557895,28.2042105 C83.6463113,29.1136888 83.191579,30.3599921 83.191579,31.9431579 L83.191579,45.7873684 C83.191579,46.1242122 83.0736855,46.4105251 82.8378948,46.6463158 C82.6021042,46.8821064 82.3157912,47 81.9789474,47 L77.4821053,47 Z"></path>
            <rect x="31.5" y="9.75" width="39.75" height="6" rx="1.05263158"></rect>
        </g>
    </g>
</svg>
