<svg xmlns="http://www.w3.org/2000/svg" xmlns:xlink="http://www.w3.org/1999/xlink" viewBox="4689 2835 878 379">
  <defs>
    <style>
      .cls-1 {
        clip-path: url(#clip-sound-engineering);
      }

      .cls-2, .cls-4 {
        fill: none;
      }

      .cls-2 {
        stroke: #003049;
        stroke-width: 10px;
      }

      .cls-3 {
        stroke: none;
      }

      .cls-5 {
        fill: rgba(255,255,255,0);
      }
    </style>
    <clipPath id="clip-sound-engineering">
      <rect x="4689" y="2835" width="878" height="379"/>
    </clipPath>
  </defs>
  <g id="sound-engineering" class="cls-1">
    <rect class="cls-5" x="4689" y="2835" width="878" height="379"/>
    <g id="Rectangle_317" data-name="Rectangle 317" class="cls-2" transform="translate(5330 2835)">
      <rect class="cls-3" width="237" height="379" rx="17"/>
      <rect class="cls-4" x="5" y="5" width="227" height="369" rx="12"/>
    </g>
    <g id="Ellipse_30" data-name="Ellipse 30" class="cls-2" transform="translate(5375 3033)">
      <circle class="cls-3" cx="74" cy="74" r="74"/>
      <circle class="cls-4" cx="74" cy="74" r="69"/>
    </g>
    <g id="Ellipse_31" data-name="Ellipse 31" class="cls-2" transform="translate(5411 2901)">
      <circle class="cls-3" cx="37.5" cy="37.5" r="37.5"/>
      <circle class="cls-4" cx="37.5" cy="37.5" r="32.5"/>
    </g>
    <g id="Ellipse_32" data-name="Ellipse 32" class="cls-2" transform="translate(5428 3086)">
      <circle class="cls-3" cx="20.5" cy="20.5" r="20.5"/>
      <circle class="cls-4" cx="20.5" cy="20.5" r="15.5"/>
    </g>
    <g id="Rectangle_318" data-name="Rectangle 318" class="cls-2" transform="translate(4689 2835)">
      <rect class="cls-3" width="237" height="379" rx="17"/>
      <rect class="cls-4" x="5" y="5" width="227" height="369" rx="12"/>
    </g>
    <g id="Ellipse_33" data-name="Ellipse 33" class="cls-2" transform="translate(4734 3033)">
      <circle class="cls-3" cx="74" cy="74" r="74"/>
      <circle class="cls-4" cx="74" cy="74" r="69"/>
    </g>
    <g id="Ellipse_34" data-name="Ellipse 34" class="cls-2" transform="translate(4770 2901)">
      <circle class="cls-3" cx="37.5" cy="37.5" r="37.5"/>
      <circle class="cls-4" cx="37.5" cy="37.5" r="32.5"/>
    </g>
    <g id="Ellipse_35" data-name="Ellipse 35" class="cls-2" transform="translate(4787 3086)">
      <circle class="cls-3" cx="20.5" cy="20.5" r="20.5"/>
      <circle class="cls-4" cx="20.5" cy="20.5" r="15.5"/>
    </g>
    <g id="Rectangle_319" data-name="Rectangle 319" class="cls-2" transform="translate(4981 3109)">
      <rect class="cls-3" width="295" height="105" rx="17"/>
      <rect class="cls-4" x="5" y="5" width="285" height="95" rx="12"/>
    </g>
    <g id="Ellipse_36" data-name="Ellipse 36" class="cls-2" transform="translate(5198 3141)">
      <circle class="cls-3" cx="20.5" cy="20.5" r="20.5"/>
      <circle class="cls-4" cx="20.5" cy="20.5" r="15.5"/>
    </g>
    <g id="Ellipse_37" data-name="Ellipse 37" class="cls-2" transform="translate(5015 3141)">
      <circle class="cls-3" cx="20.5" cy="20.5" r="20.5"/>
      <circle class="cls-4" cx="20.5" cy="20.5" r="15.5"/>
    </g>
    <g id="Ellipse_38" data-name="Ellipse 38" class="cls-2" transform="translate(5072 3141)">
      <circle class="cls-3" cx="20.5" cy="20.5" r="20.5"/>
      <circle class="cls-4" cx="20.5" cy="20.5" r="15.5"/>
    </g>
  </g>
</svg>
