<?xml version="1.0" encoding="UTF-8"?>
<svg width="324px" height="577px" viewBox="0 0 324 577" version="1.1" xmlns="http://www.w3.org/2000/svg" xmlns:xlink="http://www.w3.org/1999/xlink">
    <title>Stockpile icon</title>
    <defs>
        <filter x="-12.2%" y="-6.5%" width="124.3%" height="112.9%" filterUnits="objectBoundingBox" id="filter-1">
            <feOffset dx="0" dy="0" in="SourceAlpha" result="shadowOffsetOuter1"></feOffset>
            <feGaussianBlur stdDeviation="9" in="shadowOffsetOuter1" result="shadowBlurOuter1"></feGaussianBlur>
            <feColorMatrix values="0 0 0 0 0   0 0 0 0 0   0 0 0 0 0  0 0 0 0.5 0" type="matrix" in="shadowBlurOuter1" result="shadowMatrixOuter1"></feColorMatrix>
            <feMerge>
                <feMergeNode in="shadowMatrixOuter1"></feMergeNode>
                <feMergeNode in="SourceGraphic"></feMergeNode>
            </feMerge>
        </filter>
    </defs>
    <g stroke="none" stroke-width="1" fill="none" fill-rule="evenodd">
        <g transform="translate(-823.000000, -2691.000000)">
            <rect fill="#002F60" x="920" y="2651" width="522" height="662" rx="2"></rect>
            <g filter="url(#filter-1)" transform="translate(841.000000, 2709.000000)">
                <rect fill="#3A3A3A" x="0" y="143" width="12" height="40" rx="2"></rect>
                <rect fill="#3A3A3A" x="0" y="195" width="12" height="40" rx="2"></rect>
                <rect fill="#3A3A3A" x="0" y="76" width="12" height="40" rx="2"></rect>
                <path d="M278,151 L286,151 C287.104569,151 288,151.895431 288,153 L288,215 C288,216.104569 287.104569,217 286,217 L278,217 C276.895431,217 276,216.104569 276,215 L276,153 C276,151.895431 276.895431,151 278,151 Z" id="Rectangle-2" fill="#3A3A3A"></path>
                <path d="M42,0 L246,0 C267.539105,-3.95666944e-15 285,17.4608948 285,39 L285,502 C285,523.539105 267.539105,541 246,541 L42,541 C20.4608948,541 3,523.539105 3,502 L3,39 C3,17.4608948 20.4608948,3.95666944e-15 42,0 Z" id="Rectangle-6" fill="#3A3A3A" fill-rule="nonzero"></path>
                <g transform="translate(18.000000, 14.000000)">
                    <rect fill="#FFFFFF" fill-rule="nonzero" x="0" y="71" width="252" height="396"></rect>
                    <rect fill="#6D435A" x="21" y="406" width="210" height="27" rx="2"></rect>
                    <rect fill="#6D435A" x="0" y="27" width="252" height="44"></rect>
                    <rect fill="#6D435A" x="0" y="460" width="252" height="52" rx="22.5"></rect>
                    <path d="M39.5703125,21 C75.2626953,21 54.7128906,0.341796875 65.7431641,0.341796875 C74.9746094,0.341796875 89.3574219,0.341796875 89.3574219,0.341796875 C113.785807,0.341796875 126,9.22786458 126,27 L5.68434189e-14,27 L5.68434189e-14,21 C16.2739071,21 29.4640113,21 39.5703125,21 Z" id="Path-3" fill="#6D435A" transform="translate(63.000000, 13.670898) scale(-1, 1) translate(-63.000000, -13.670898) "></path>
                    <path d="M165.570312,21 C201.262695,21 180.712891,0.341796875 191.743164,0.341796875 C200.974609,0.341796875 215.357422,0.341796875 215.357422,0.341796875 C239.785807,0.341796875 252,9.22786458 252,27 L126,27 L126,21 C142.273907,21 155.464011,21 165.570312,21 Z" id="Path-3" fill="#6D435A"></path>
                    <rect fill="#6D435A" x="0" y="454" width="252" height="36"></rect>
                    <rect fill="#FFFFFF" x="22" y="40" width="90" height="12" rx="2"></rect>
                    <rect fill="#FFFFFF" x="22" y="470" width="40" height="12" rx="2"></rect>
                    <rect fill="#FFFFFF" x="191" y="470" width="40" height="12" rx="2"></rect>
                    <rect fill="#FFFFFF" x="107" y="470" width="40" height="12" rx="2"></rect>
                    <g transform="translate(89.000000, 158.000000)">
                        <g stroke="#6D435A" stroke-width="7.93346451">
                            <line x1="38.3745928" y1="23.7122286" x2="26.0194788" y2="0.266514286" id="Shape"></line>
                            <line x1="0.198143322" y1="72.4667429" x2="41.2213355" y2="0.213714286" id="Shape"></line>
                        </g>
                        <polygon fill="#FF6978" fill-rule="nonzero" points="40.6494788 13.9744 4.96863192 77 25.497785 87.8114286 56.4432573 87.8566857 76.8194137 74.6416"></polygon>
                        <polygon fill="#352D39" fill-rule="nonzero" points="25.497785 87.8768 40.6494788 52.5485714 56.7617915 87.8692571"></polygon>
                        <polygon fill="#6D435A" fill-rule="nonzero" points="40.6494788 52.7773714 64.750228 76.0848 56.5185016 87.9019429"></polygon>
                    </g>
                </g>
            </g>
        </g>
    </g>
</svg>