<svg width="335px" height="581px" viewBox="0 0 335 581" version="1.1" xmlns="http://www.w3.org/2000/svg" xmlns:xlink="http://www.w3.org/1999/xlink">
    <defs>
        <filter x="-9.0%" y="-5.0%" width="118.1%" height="109.9%" filterUnits="objectBoundingBox" id="filter-1">
            <feOffset dx="0" dy="0" in="SourceAlpha" result="shadowOffsetOuter1"></feOffset>
            <feGaussianBlur stdDeviation="9" in="shadowOffsetOuter1" result="shadowBlurOuter1"></feGaussianBlur>
            <feColorMatrix values="0 0 0 0 0   0 0 0 0 0   0 0 0 0 0  0 0 0 0.5 0" type="matrix" in="shadowBlurOuter1" result="shadowMatrixOuter1"></feColorMatrix>
            <feMerge>
                <feMergeNode in="shadowMatrixOuter1"></feMergeNode>
                <feMergeNode in="SourceGraphic"></feMergeNode>
            </feMerge>
        </filter>
    </defs>
    <g stroke="none" stroke-width="1" fill="none" fill-rule="evenodd">
        <g filter="url(#filter-1)" transform="translate(18.000000, 18.000000)">
            <rect fill="#3A3A3A" x="287" y="112" width="12" height="40" rx="2"></rect>
            <rect fill="#3A3A3A" x="287" y="182" width="12" height="90" rx="2"></rect>
            <rect fill="#3A3A3A" fill-rule="nonzero" x="0" y="0" width="293" height="545" rx="32"></rect>
            <rect fill="#FFFFFF" fill-rule="nonzero" x="20" y="68" width="252" height="403" rx="2"></rect>
            <rect fill="#6D435A" x="41" y="378" width="210" height="27" rx="2"></rect>
            <rect fill="#6D435A" x="20" y="67" width="252" height="45"></rect>
            <rect fill="#6D435A" x="20" y="426" width="252" height="45"></rect>
            <rect fill="#FFFFFF" x="42" y="84" width="90" height="12" rx="2"></rect>
            <rect fill="#5B5B5B" x="101" y="29" width="90" height="12" rx="2"></rect>
            <rect fill="#FFFFFF" x="42" y="443" width="40" height="12" rx="2"></rect>
            <rect fill="#FFFFFF" x="211" y="443" width="40" height="12" rx="2"></rect>
            <rect fill="#FFFFFF" x="127" y="443" width="40" height="12" rx="2"></rect>
            <g transform="translate(109.000000, 182.000000)">
                <g id="Group" stroke="#6D435A" stroke-width="7.93346451">
                    <path d="M38.3745928,23.7122286 L26.0194788,0.266514286" id="Shape"></path>
                    <path d="M0.198143322,72.4667429 L41.2213355,0.213714286" id="Shape"></path>
                </g>
                <polygon fill="#FF6978" fill-rule="nonzero" points="40.6494788 13.9744 4.96863192 77 25.497785 87.8114286 56.4432573 87.8566857 76.8194137 74.6416"></polygon>
                <polygon fill="#352D39" fill-rule="nonzero" points="25.497785 87.8768 40.6494788 52.5485714 56.7617915 87.8692571"></polygon>
                <polygon fill="#6D435A" fill-rule="nonzero" points="40.6494788 52.7773714 64.750228 76.0848 56.5185016 87.9019429"></polygon>
            </g>
            <circle fill="#5B5B5B" fill-rule="nonzero" cx="48.5" cy="34.5" r="7.5"></circle>
            <circle fill="#5B5B5B" fill-rule="nonzero" cx="145" cy="509" r="18"></circle>
        </g>
    </g>
</svg>