<svg id="Group_58" data-name="Group 58" xmlns="http://www.w3.org/2000/svg" viewBox="4769 4327 849 423">
  <defs>
    <style>
      .cls-1, .cls-3 {
        fill: none;
      }

      .cls-1 {
        stroke: #003049;
        stroke-width: 10px;
      }

      .cls-2 {
        stroke: none;
      }
    </style>
  </defs>
  <g id="Rectangle_313" data-name="Rectangle 313" class="cls-1" transform="translate(5381 4327)">
    <rect class="cls-2" width="237" height="423" rx="17"/>
    <rect class="cls-3" x="5" y="5" width="227" height="413" rx="12"/>
  </g>
  <g id="Ellipse_20" data-name="Ellipse 20" class="cls-1" transform="translate(5426 4557)">
    <circle class="cls-2" cx="74" cy="74" r="74"/>
    <circle class="cls-3" cx="74" cy="74" r="69"/>
  </g>
  <g id="Ellipse_21" data-name="Ellipse 21" class="cls-1" transform="translate(5462 4399)">
    <circle class="cls-2" cx="37.5" cy="37.5" r="37.5"/>
    <circle class="cls-3" cx="37.5" cy="37.5" r="32.5"/>
  </g>
  <g id="Ellipse_22" data-name="Ellipse 22" class="cls-1" transform="translate(5479 4610)">
    <circle class="cls-2" cx="20.5" cy="20.5" r="20.5"/>
    <circle class="cls-3" cx="20.5" cy="20.5" r="15.5"/>
  </g>
  <g id="Rectangle_314" data-name="Rectangle 314" class="cls-1" transform="translate(4769 4327)">
    <rect class="cls-2" width="237" height="423" rx="17"/>
    <rect class="cls-3" x="5" y="5" width="227" height="413" rx="12"/>
  </g>
  <g id="Ellipse_23" data-name="Ellipse 23" class="cls-1" transform="translate(4814 4557)">
    <circle class="cls-2" cx="74" cy="74" r="74"/>
    <circle class="cls-3" cx="74" cy="74" r="69"/>
  </g>
  <g id="Ellipse_24" data-name="Ellipse 24" class="cls-1" transform="translate(4850 4399)">
    <circle class="cls-2" cx="37.5" cy="37.5" r="37.5"/>
    <circle class="cls-3" cx="37.5" cy="37.5" r="32.5"/>
  </g>
  <g id="Ellipse_25" data-name="Ellipse 25" class="cls-1" transform="translate(4867 4610)">
    <circle class="cls-2" cx="20.5" cy="20.5" r="20.5"/>
    <circle class="cls-3" cx="20.5" cy="20.5" r="15.5"/>
  </g>
  <g id="Rectangle_315" data-name="Rectangle 315" class="cls-1" transform="translate(5046 4639)">
    <rect class="cls-2" width="295" height="111" rx="17"/>
    <rect class="cls-3" x="5" y="5" width="285" height="101" rx="12"/>
  </g>
  <g id="Ellipse_26" data-name="Ellipse 26" class="cls-1" transform="translate(5265 4674)">
    <circle class="cls-2" cx="20.5" cy="20.5" r="20.5"/>
    <circle class="cls-3" cx="20.5" cy="20.5" r="15.5"/>
  </g>
  <g id="Ellipse_28" data-name="Ellipse 28" class="cls-1" transform="translate(5082 4674)">
    <circle class="cls-2" cx="20.5" cy="20.5" r="20.5"/>
    <circle class="cls-3" cx="20.5" cy="20.5" r="15.5"/>
  </g>
  <g id="Ellipse_29" data-name="Ellipse 29" class="cls-1" transform="translate(5139 4674)">
    <circle class="cls-2" cx="20.5" cy="20.5" r="20.5"/>
    <circle class="cls-3" cx="20.5" cy="20.5" r="15.5"/>
  </g>
</svg>
