<svg xmlns="http://www.w3.org/2000/svg" xmlns:xlink="http://www.w3.org/1999/xlink" viewBox="4577 2435 649 473">
  <defs>
    <style>
      .cls-1 {
        clip-path: url(#clip-front-end);
      }

      .cls-2, .cls-8 {
        fill: none;
      }

      .cls-2, .cls-3, .cls-4 {
        stroke: #fff;
        stroke-width: 10px;
      }

      .cls-3, .cls-9 {
        fill: rgba(0,0,0,0);
      }

      .cls-4 {
        fill: #003049;
      }

      .cls-5, .cls-6 {
        fill: #fff;
      }

      .cls-6 {
        font-size: 200px;
        font-family: Hind-Light, Hind;
        font-weight: 300;
      }

      .cls-7 {
        stroke: none;
      }
    </style>
    <clipPath id="clip-front-end">
      <rect x="4577" y="2435" width="649" height="473"/>
    </clipPath>
  </defs>
  <g id="front-end" class="cls-1">
    <rect class="cls-9" x="4577" y="2435" width="649" height="473"/>
    <path id="Path_49" data-name="Path 49" class="cls-2" d="M0,0H593" transform="translate(4577.5 2776.5)"/>
    <g id="Rectangle_300" data-name="Rectangle 300" class="cls-2" transform="translate(4577 2435)">
      <rect class="cls-7" width="593" height="396" rx="17"/>
      <rect class="cls-8" x="5" y="5" width="583" height="386" rx="12"/>
    </g>
    <g id="Rectangle_301" data-name="Rectangle 301" class="cls-2" transform="translate(4763 2871)">
      <rect class="cls-7" width="221" height="37" rx="15"/>
      <rect class="cls-8" x="5" y="5" width="211" height="27" rx="10"/>
    </g>
    <path id="Path_51" data-name="Path 51" class="cls-3" d="M34.191,46.451,21.18,34.306s-7.341-7.416-10.462-14.97S6.693,0,6.693,0" transform="translate(4923.436 2830.559)"/>
    <g id="Group_56" data-name="Group 56" transform="translate(4033 1347.87)">
      <g id="Rectangle_302" data-name="Rectangle 302" class="cls-4" transform="translate(1055 1317)">
        <rect class="cls-7" width="138.422" height="243.13" rx="17"/>
        <rect class="cls-8" x="5" y="5" width="128.422" height="233.13" rx="12"/>
      </g>
    </g>
    <circle id="Ellipse_16" data-name="Ellipse 16" class="cls-5" cx="10" cy="10" r="10" transform="translate(5147 2867)"/>
    <rect id="Rectangle_303" data-name="Rectangle 303" class="cls-5" width="10" height="50" rx="5" transform="translate(5182.222 2689.471) rotate(90)"/>
    <text id="_" data-name="{   }" class="cls-6" transform="translate(4737 2667)"><tspan x="0" y="0" xml:space="preserve">{   }</tspan></text>
    <path id="Path_50" data-name="Path 50" class="cls-3" d="M6.693,46.451l14.83-12.146s8.367-7.416,11.925-14.97S38.035,0,38.035,0" transform="translate(4783.709 2830.559)"/>
    <circle id="Ellipse_15" data-name="Ellipse 15" class="cls-5" cx="10" cy="10" r="10" transform="translate(4864 2791)"/>
  </g>
</svg>
